<svg xmlns="http://www.w3.org/2000/svg" xmlns:xlink="http://www.w3.org/1999/xlink" width="800" zoomAndPan="magnify" viewBox="0 0 600 599.999999" height="800" preserveAspectRatio="xMidYMid meet" version="1.0"><defs><clipPath id="d754bc5440"><path d="M 445 34 L 600 34 L 600 600 L 445 600 Z M 445 34 " clip-rule="nonzero"/></clipPath><clipPath id="e67f816cba"><path d="M 320.394531 485.347656 L 820.457031 -111.3125 L 1234.324219 235.550781 L 734.265625 832.210938 Z M 320.394531 485.347656 " clip-rule="nonzero"/></clipPath><clipPath id="fd8cb61305"><path d="M 320.394531 485.347656 L 820.457031 -111.3125 L 1234.324219 235.550781 L 734.265625 832.210938 Z M 320.394531 485.347656 " clip-rule="nonzero"/></clipPath><clipPath id="27051c8a53"><path d="M 0 0 L 121 0 L 121 600 L 0 600 Z M 0 0 " clip-rule="nonzero"/></clipPath><clipPath id="524ecc604b"><path d="M -524.59375 520.609375 L -262.273438 -225.890625 L 255.679688 -43.882812 L -6.640625 702.617188 Z M -524.59375 520.609375 " clip-rule="nonzero"/></clipPath><clipPath id="9904121fc0"><path d="M -524.59375 520.609375 L -262.273438 -225.890625 L 255.679688 -43.882812 L -6.640625 702.617188 Z M -524.59375 520.609375 " clip-rule="nonzero"/></clipPath></defs><g clip-path="url(#d754bc5440)"><g clip-path="url(#e67f816cba)"><g clip-path="url(#fd8cb61305)"><path fill="#26479c" d="M 466.246094 314.078125 C 464.847656 315.304688 463.351562 316.445312 462.054688 317.792969 C 451.996094 328.238281 444.957031 340.742188 445.484375 355.132812 C 446.3125 367.269531 448.78125 379.0625 452.886719 390.511719 C 457.082031 401.566406 461.890625 412.34375 467.320312 422.847656 C 474.957031 439.441406 484.46875 455.328125 487.722656 473.625 C 490.285156 485.148438 491.824219 496.808594 492.332031 508.605469 C 491.710938 521.929688 490.324219 535.171875 488.175781 548.335938 C 486.660156 561.238281 486.484375 573.679688 495.753906 584.5 C 497.542969 586.585938 497.058594 590.765625 497.296875 594.003906 C 497.566406 597.585938 497.035156 601.261719 497.585938 604.789062 C 499.449219 616.523438 506.167969 626.003906 512.710938 635.460938 C 521.757812 648.507812 530.792969 661.773438 545.421875 669.304688 C 555.023438 674.4375 564.925781 678.902344 575.132812 682.703125 C 579.441406 684.335938 583.859375 685.5625 588.394531 686.375 C 592.929688 687.183594 597.5 687.570312 602.109375 687.53125 C 606.714844 687.496094 611.28125 687.03125 615.800781 686.140625 C 620.320312 685.253906 624.722656 683.957031 629 682.246094 C 658.582031 670.164062 682.929688 650.582031 703.96875 626.632812 C 714.851562 613.40625 726.917969 601.367188 740.167969 590.511719 C 743.320312 587.980469 746.578125 585.597656 749.949219 583.367188 C 753.320312 581.132812 756.785156 579.058594 760.34375 577.144531 C 763.90625 575.230469 767.546875 573.484375 771.265625 571.902344 C 774.988281 570.320312 778.773438 568.914062 782.621094 567.679688 C 786.472656 566.445312 790.371094 565.390625 794.316406 564.515625 C 798.261719 563.640625 802.242188 562.945312 806.25 562.4375 C 810.261719 561.925781 814.285156 561.597656 818.324219 561.457031 C 822.367188 561.316406 826.402344 561.359375 830.4375 561.589844 C 848.109375 562.496094 865.78125 563.058594 883.476562 563.5 C 905.039062 563.992188 926.292969 561.644531 947.230469 556.464844 C 949.480469 555.972656 951.683594 555.332031 953.839844 554.542969 C 956 553.75 958.097656 552.816406 960.125 551.738281 C 962.15625 550.660156 964.105469 549.445312 965.96875 548.101562 C 967.835938 546.753906 969.597656 545.285156 971.261719 543.699219 C 972.925781 542.113281 974.472656 540.417969 975.90625 538.617188 C 977.335938 536.816406 978.636719 534.929688 979.8125 532.949219 C 980.984375 530.96875 982.015625 528.921875 982.90625 526.800781 C 983.796875 524.679688 984.539062 522.511719 985.132812 520.289062 C 991.84375 498.34375 994.003906 475.65625 986.027344 453.28125 C 983.226562 445.753906 980.023438 438.402344 976.417969 431.230469 C 972.578125 422.722656 968.222656 414.492188 963.355469 406.53125 C 952.550781 389.941406 941.269531 373.792969 932.917969 355.613281 C 930.5625 350.632812 928.601562 345.5 927.03125 340.21875 C 925.460938 334.9375 924.300781 329.566406 923.554688 324.109375 C 922.804688 318.648438 922.472656 313.164062 922.5625 307.65625 C 922.652344 302.144531 923.15625 296.675781 924.082031 291.242188 C 924.3125 287.773438 925.261719 284.511719 926.925781 281.460938 C 931.96875 274.421875 933.589844 266.203125 936.457031 258.359375 C 940.097656 249.085938 944.503906 240.1875 949.671875 231.664062 C 954.839844 223.144531 960.695312 215.125 967.238281 207.609375 C 978.789062 193.539062 989.285156 178.71875 998.726562 163.152344 C 1008.167969 147.585938 1016.457031 131.429688 1023.59375 114.683594 C 1025.765625 109.835938 1027.390625 104.808594 1028.464844 99.605469 C 1029.539062 94.402344 1030.042969 89.144531 1029.96875 83.832031 C 1030.019531 81.808594 1029.902344 79.792969 1029.613281 77.789062 C 1029.328125 75.785156 1028.871094 73.816406 1028.25 71.890625 C 1027.625 69.960938 1026.847656 68.101562 1025.910156 66.304688 C 1024.972656 64.511719 1023.886719 62.808594 1022.660156 61.195312 C 1018.984375 56.730469 1014.800781 52.808594 1010.109375 49.429688 C 1005.421875 46.046875 1000.375 43.316406 994.980469 41.242188 C 976.898438 33.941406 957.980469 33.058594 939.050781 34.777344 C 923.667969 36.085938 908.589844 38.980469 893.816406 43.457031 C 879.042969 47.9375 864.898438 53.90625 851.378906 61.359375 C 840.414062 67.253906 830.148438 74.183594 820.582031 82.152344 C 811.019531 90.125 802.347656 98.96875 794.574219 108.691406 C 777.867188 130.347656 760.082031 151.070312 741.210938 170.867188 C 724.71875 186.917969 707.277344 201.859375 688.882812 215.691406 C 677.679688 224.039062 666.039062 231.730469 653.972656 238.769531 C 649.34375 241.3125 644.539062 243.46875 639.566406 245.242188 C 636.699219 246.433594 633.542969 247.015625 630.804688 248.445312 C 609.867188 259.332031 587.074219 263.730469 564.230469 268.277344 C 550.167969 270.71875 536.414062 274.332031 522.964844 279.117188 C 502.042969 287.175781 481.929688 297.199219 466.246094 314.078125 Z M 466.246094 314.078125 " fill-opacity="1" fill-rule="nonzero"/></g></g></g><g clip-path="url(#27051c8a53)"><g clip-path="url(#524ecc604b)"><g clip-path="url(#9904121fc0)"><path fill="#2baaff" d="M -447.097656 305.503906 C -447.988281 307.167969 -449.007812 308.792969 -449.757812 310.539062 C -455.589844 324.070312 -457.816406 338.488281 -452.164062 351.988281 C -447.03125 363.238281 -440.460938 373.574219 -432.460938 383.003906 C -424.511719 392.019531 -416.074219 400.554688 -407.152344 408.605469 C -393.945312 421.660156 -379.207031 433.375 -369.566406 449.621094 C -363 459.667969 -357.367188 470.210938 -352.660156 481.253906 C -348.484375 494.152344 -345.0625 507.246094 -342.398438 520.539062 C -339.222656 533.359375 -334.9375 545.253906 -322.246094 552.234375 C -319.796875 553.582031 -318.761719 557.730469 -317.375 560.726562 C -315.839844 564.035156 -315.027344 567.726562 -313.242188 570.886719 C -307.269531 581.382812 -297.484375 588 -287.875 594.660156 C -274.597656 603.835938 -261.25 613.222656 -244.636719 615.160156 C -233.660156 616.609375 -222.636719 617.316406 -211.566406 617.28125 C -206.882812 617.296875 -202.238281 616.878906 -197.632812 616.03125 C -193.027344 615.179688 -188.539062 613.914062 -184.167969 612.230469 C -179.800781 610.546875 -175.621094 608.472656 -171.636719 606.011719 C -167.65625 603.546875 -163.933594 600.738281 -160.472656 597.585938 C -136.644531 575.507812 -120.484375 548.171875 -109.039062 517.863281 C -103.417969 501.386719 -96.242188 485.617188 -87.515625 470.550781 C -85.425781 467.015625 -83.175781 463.582031 -80.765625 460.253906 C -78.359375 456.925781 -75.804688 453.710938 -73.101562 450.617188 C -70.398438 447.523438 -67.558594 444.558594 -64.585938 441.722656 C -61.609375 438.886719 -58.511719 436.195312 -55.289062 433.644531 C -52.066406 431.09375 -48.734375 428.699219 -45.292969 426.453125 C -41.851562 424.207031 -38.3125 422.125 -34.679688 420.207031 C -31.046875 418.285156 -27.335938 416.535156 -23.542969 414.957031 C -19.746094 413.378906 -15.890625 411.976562 -11.96875 410.75 C 5.171875 405.296875 22.1875 399.507812 39.183594 393.601562 C 59.878906 386.355469 79.261719 376.527344 97.335938 364.109375 C 99.296875 362.839844 101.164062 361.441406 102.9375 359.917969 C 104.707031 358.390625 106.367188 356.753906 107.914062 355 C 109.460938 353.246094 110.878906 351.398438 112.171875 349.449219 C 113.464844 347.5 114.617188 345.476562 115.632812 343.371094 C 116.648438 341.265625 117.515625 339.097656 118.234375 336.875 C 118.949219 334.648438 119.511719 332.386719 119.921875 330.085938 C 120.328125 327.785156 120.578125 325.464844 120.664062 323.128906 C 120.753906 320.792969 120.683594 318.460938 120.453125 316.136719 C 118.988281 292.859375 112.921875 270.5 97.324219 252.0625 C 91.96875 245.902344 86.289062 240.054688 80.289062 234.519531 C 73.589844 227.800781 66.503906 221.523438 59.023438 215.691406 C 42.804688 203.773438 26.289062 192.441406 11.835938 178.132812 C 7.8125 174.238281 4.109375 170.054688 0.726562 165.59375 C -2.65625 161.128906 -5.683594 156.433594 -8.347656 151.507812 C -11.015625 146.582031 -13.292969 141.480469 -15.179688 136.207031 C -17.066406 130.933594 -18.542969 125.546875 -19.605469 120.050781 C -20.628906 116.664062 -20.894531 113.222656 -20.402344 109.726562 C -18.121094 101.222656 -19.519531 92.824219 -19.597656 84.339844 C -19.453125 74.210938 -18.449219 64.171875 -16.578125 54.214844 C -14.710938 44.261719 -12.007812 34.539062 -8.46875 25.046875 C -2.511719 7.527344 2.171875 -10.324219 5.585938 -28.511719 C 8.996094 -46.695312 11.101562 -65.035156 11.902344 -83.519531 C 12.234375 -88.910156 11.980469 -94.273438 11.140625 -99.605469 C 10.300781 -104.941406 8.898438 -110.121094 6.925781 -115.152344 C 6.253906 -117.097656 5.417969 -118.972656 4.425781 -120.773438 C 3.433594 -122.578125 2.296875 -124.289062 1.015625 -125.898438 C -0.265625 -127.511719 -1.675781 -129.003906 -3.210938 -130.375 C -4.742188 -131.746094 -6.382812 -132.980469 -8.128906 -134.074219 C -13.222656 -137.007812 -18.609375 -139.242188 -24.28125 -140.78125 C -29.953125 -142.324219 -35.730469 -143.117188 -41.609375 -143.160156 C -61.425781 -143.640625 -79.742188 -137.714844 -97.144531 -129.3125 C -111.3125 -122.566406 -124.625 -114.417969 -137.078125 -104.875 C -149.535156 -95.328125 -160.859375 -84.59375 -171.054688 -72.664062 C -179.382812 -63.136719 -186.667969 -52.871094 -192.917969 -41.871094 C -199.167969 -30.867188 -204.253906 -19.351562 -208.171875 -7.320312 C -216.320312 19.257812 -225.828125 45.335938 -236.703125 70.917969 C -246.648438 92.085938 -257.898438 112.542969 -270.453125 132.277344 C -278.128906 144.226562 -286.449219 155.707031 -295.414062 166.71875 C -298.910156 170.792969 -302.707031 174.566406 -306.808594 178.03125 C -309.105469 180.191406 -311.902344 181.871094 -314 184.210938 C -330.023438 202.058594 -350.140625 214.390625 -370.25 226.886719 C -382.757812 234.238281 -394.554688 242.59375 -405.636719 251.957031 C -422.660156 267.105469 -438.214844 283.835938 -447.097656 305.503906 Z M -447.097656 305.503906 " fill-opacity="1" fill-rule="nonzero"/></g></g></g></svg>