<svg xmlns="http://www.w3.org/2000/svg" xmlns:xlink="http://www.w3.org/1999/xlink" width="800" zoomAndPan="magnify" viewBox="0 0 600 599.999999" height="800" preserveAspectRatio="xMidYMid meet" version="1.0"><defs><clipPath id="bf445392ec"><path d="M 204 341.207031 L 285.632812 341.207031 L 285.632812 411.78125 L 204 411.78125 Z M 204 341.207031 " clip-rule="nonzero"/></clipPath><clipPath id="e917aa866b"><path d="M 122.6875 341.207031 L 245 341.207031 L 245 480.707031 L 122.6875 480.707031 Z M 122.6875 341.207031 " clip-rule="nonzero"/></clipPath><clipPath id="7fd9fedfb2"><path d="M 41.292969 341.207031 L 163.613281 341.207031 L 163.613281 480.707031 L 41.292969 480.707031 Z M 41.292969 341.207031 " clip-rule="nonzero"/></clipPath><clipPath id="cecea6d9d7"><path d="M 352 0 L 600 0 L 600 343 L 352 343 Z M 352 0 " clip-rule="nonzero"/></clipPath><clipPath id="1e6da9c0b8"><path d="M 405.816406 -258.453125 L 1169.234375 -105.9375 L 1063.441406 423.597656 L 300.027344 271.082031 Z M 405.816406 -258.453125 " clip-rule="nonzero"/></clipPath><clipPath id="282076b9f2"><path d="M 405.816406 -258.453125 L 1169.234375 -105.9375 L 1063.441406 423.597656 L 300.027344 271.082031 Z M 405.816406 -258.453125 " clip-rule="nonzero"/></clipPath><clipPath id="94d4970d5e"><path d="M 40.472656 259.234375 L 111.046875 259.234375 L 111.046875 341.085938 L 40.472656 341.085938 Z M 40.472656 259.234375 " clip-rule="nonzero"/></clipPath><clipPath id="2b2f607bf8"><path d="M 0 178.140625 L 111.046875 178.140625 L 111.046875 300.917969 L 0 300.917969 Z M 0 178.140625 " clip-rule="nonzero"/></clipPath><clipPath id="4745bef023"><path d="M 0 96.742188 L 111.046875 96.742188 L 111.046875 219 L 0 219 Z M 0 96.742188 " clip-rule="nonzero"/></clipPath></defs><g clip-path="url(#bf445392ec)"><path fill="#26479c" d="M 224.546875 411.707031 L 265.246094 411.707031 L 285.632812 376.40625 L 265.246094 341.183594 L 224.546875 341.183594 L 204.160156 376.40625 L 224.546875 411.707031 " fill-opacity="1" fill-rule="nonzero"/></g><g clip-path="url(#e917aa866b)"><path fill="#2baaff" d="M 135.578125 398.675781 L 135.570312 398.675781 L 136.945312 401.054688 L 143.074219 411.707031 L 143.101562 411.707031 L 170.511719 459.128906 L 170.515625 459.121094 L 183.847656 482.15625 L 224.546875 482.15625 L 244.9375 446.929688 L 231.214844 423.222656 L 197.628906 365.078125 L 183.847656 341.183594 L 143.074219 341.183594 L 122.765625 376.40625 L 135.578125 398.675781 " fill-opacity="1" fill-rule="nonzero"/></g><g clip-path="url(#7fd9fedfb2)"><path fill="#1836b2" d="M 55.140625 400.386719 L 55.085938 400.417969 L 89.945312 460.871094 L 90.027344 460.820312 L 102.375 482.15625 L 143.074219 482.15625 L 163.460938 446.929688 L 143.074219 411.707031 L 143.0625 411.707031 L 122.703125 376.511719 L 122.765625 376.40625 L 102.375 341.183594 L 61.675781 341.183594 L 41.292969 376.40625 L 55.140625 400.386719 " fill-opacity="1" fill-rule="nonzero"/></g><g clip-path="url(#cecea6d9d7)"><g clip-path="url(#1e6da9c0b8)"><g clip-path="url(#282076b9f2)"><path fill="#26479c" d="M 626.0625 -212.648438 C 624.316406 -213.285156 622.597656 -214.050781 620.792969 -214.542969 C 606.804688 -218.355469 592.453125 -218.535156 580.082031 -211.167969 C 569.832031 -204.617188 560.667969 -196.796875 552.589844 -187.703125 C 544.902344 -178.71875 537.753906 -169.324219 531.140625 -159.523438 C 520.246094 -144.863281 510.871094 -128.894531 496.375 -117.261719 C 487.496094 -109.484375 478.003906 -102.539062 467.894531 -96.433594 C 455.90625 -90.589844 443.625 -85.453125 431.042969 -81.023438 C 418.992188 -76.164062 407.996094 -70.347656 402.949219 -57.023438 C 401.972656 -54.453125 398.078125 -52.871094 395.347656 -51.109375 C 392.335938 -49.15625 388.855469 -47.859375 386.023438 -45.683594 C 376.621094 -38.417969 371.527344 -27.976562 366.367188 -17.699219 C 359.261719 -3.503906 351.957031 10.789062 352.367188 27.238281 C 352.46875 38.125 353.300781 48.957031 354.867188 59.734375 C 355.496094 64.296875 356.542969 68.765625 358.007812 73.132812 C 359.46875 77.5 361.324219 81.699219 363.566406 85.722656 C 365.8125 89.746094 368.410156 93.527344 371.359375 97.066406 C 374.304688 100.609375 377.554688 103.847656 381.105469 106.78125 C 405.902344 126.941406 434.765625 138.910156 465.871094 145.875 C 482.695312 149.078125 499.046875 153.890625 514.925781 160.3125 C 518.660156 161.863281 522.316406 163.578125 525.890625 165.464844 C 529.464844 167.351562 532.949219 169.398438 536.335938 171.601562 C 539.726562 173.808594 543.003906 176.164062 546.175781 178.667969 C 549.347656 181.175781 552.398438 183.820312 555.328125 186.609375 C 558.257812 189.394531 561.054688 192.308594 563.714844 195.351562 C 566.375 198.394531 568.894531 201.550781 571.265625 204.824219 C 573.636719 208.097656 575.855469 211.472656 577.917969 214.949219 C 579.980469 218.425781 581.878906 221.988281 583.613281 225.640625 C 591.292969 241.582031 599.28125 257.355469 607.378906 273.09375 C 617.292969 292.25 629.546875 309.769531 644.140625 325.65625 C 645.648438 327.394531 647.265625 329.019531 648.996094 330.535156 C 650.726562 332.050781 652.550781 333.4375 654.472656 334.703125 C 656.394531 335.96875 658.390625 337.09375 660.46875 338.085938 C 662.542969 339.074219 664.675781 339.921875 666.867188 340.617188 C 669.058594 341.316406 671.289062 341.859375 673.554688 342.253906 C 675.820312 342.644531 678.101562 342.882812 680.402344 342.960938 C 682.699219 343.039062 684.992188 342.960938 687.28125 342.726562 C 689.566406 342.492188 691.828125 342.101562 694.0625 341.554688 C 716.535156 336.917969 737.480469 327.925781 753.285156 310.195312 C 758.546875 304.128906 763.460938 297.789062 768.023438 291.183594 C 773.644531 283.734375 778.777344 275.964844 783.429688 267.875 C 792.796875 250.4375 801.558594 232.789062 813.5 216.742188 C 816.742188 212.285156 820.304688 208.101562 824.183594 204.191406 C 828.066406 200.28125 832.222656 196.6875 836.652344 193.410156 C 841.082031 190.132812 845.734375 187.210938 850.613281 184.648438 C 855.488281 182.082031 860.53125 179.902344 865.742188 178.105469 C 868.894531 176.644531 872.210938 175.910156 875.691406 175.910156 C 884.285156 176.957031 892.273438 174.4375 900.527344 173.191406 C 910.414062 171.933594 920.335938 171.53125 930.292969 171.976562 C 940.246094 172.421875 950.089844 173.714844 959.824219 175.851562 C 977.714844 179.234375 995.75 181.335938 1013.9375 182.152344 C 1032.125 182.96875 1050.277344 182.488281 1068.398438 180.71875 C 1073.691406 180.296875 1078.882812 179.3125 1083.960938 177.757812 C 1089.042969 176.203125 1093.898438 174.121094 1098.523438 171.507812 C 1100.324219 170.585938 1102.035156 169.515625 1103.65625 168.300781 C 1105.277344 167.085938 1106.785156 165.742188 1108.175781 164.269531 C 1109.570312 162.800781 1110.828125 161.222656 1111.953125 159.539062 C 1113.078125 157.855469 1114.054688 156.089844 1114.878906 154.238281 C 1117.03125 148.871094 1118.46875 143.320312 1119.183594 137.582031 C 1119.898438 131.84375 1119.875 126.109375 1119.109375 120.378906 C 1116.839844 101.011719 1108.535156 83.988281 1097.949219 68.203125 C 1089.421875 55.335938 1079.648438 43.492188 1068.628906 32.679688 C 1057.613281 21.867188 1045.589844 12.320312 1032.5625 4.035156 C 1022.132812 -2.761719 1011.125 -8.445312 999.546875 -13.011719 C 987.964844 -17.582031 976.042969 -20.945312 963.78125 -23.101562 C 936.769531 -27.371094 910.050781 -33.035156 883.628906 -40.097656 C 861.632812 -46.867188 840.15625 -55 819.195312 -64.503906 C 806.496094 -70.332031 794.164062 -76.851562 782.199219 -84.066406 C 777.746094 -86.90625 773.550781 -90.085938 769.609375 -93.601562 C 767.1875 -95.539062 765.164062 -98.03125 762.59375 -99.75 C 742.996094 -112.894531 728.207031 -130.785156 713.253906 -148.648438 C 704.367188 -159.816406 694.597656 -170.152344 683.949219 -179.652344 C 666.839844 -194.144531 648.394531 -206.984375 626.0625 -212.648438 Z M 626.0625 -212.648438 " fill-opacity="1" fill-rule="nonzero"/></g></g></g><g clip-path="url(#94d4970d5e)"><path fill="#26479c" d="M 40.546875 280 L 40.546875 320.695312 L 75.847656 341.085938 L 111.070312 320.695312 L 111.070312 280 L 75.847656 259.613281 L 40.546875 280 " fill-opacity="1" fill-rule="nonzero"/></g><g clip-path="url(#2b2f607bf8)"><path fill="#2baaff" d="M 53.582031 191.03125 L 53.578125 191.023438 L 51.203125 192.398438 L 40.546875 198.527344 L 40.546875 198.554688 L -6.875 225.964844 L -6.867188 225.96875 L -29.902344 239.300781 L -29.902344 280 L 5.324219 300.386719 L 29.03125 286.667969 L 87.179688 253.082031 L 111.070312 239.300781 L 111.070312 198.527344 L 75.847656 178.214844 L 53.582031 191.03125 " fill-opacity="1" fill-rule="nonzero"/></g><g clip-path="url(#4745bef023)"><path fill="#1836b2" d="M 51.867188 110.59375 L 51.835938 110.535156 L -8.617188 145.398438 L -8.566406 145.480469 L -29.902344 157.828125 L -29.902344 198.527344 L 5.324219 218.914062 L 40.546875 198.527344 L 40.546875 198.515625 L 75.742188 178.15625 L 75.847656 178.214844 L 111.070312 157.828125 L 111.070312 117.128906 L 75.847656 96.742188 L 51.867188 110.59375 " fill-opacity="1" fill-rule="nonzero"/></g></svg>