<svg xmlns="http://www.w3.org/2000/svg" xmlns:xlink="http://www.w3.org/1999/xlink" width="800" zoomAndPan="magnify" viewBox="0 0 600 599.999999" height="800" preserveAspectRatio="xMidYMid meet" version="1.0"><defs><clipPath id="90ddc60a62"><path d="M 276 0 L 600 0 L 600 234 L 276 234 Z M 276 0 " clip-rule="nonzero"/></clipPath><clipPath id="3bee0e4133"><path d="M 329.71875 -368.03125 L 1093.132812 -215.519531 L 987.34375 314.015625 L 223.929688 161.503906 Z M 329.71875 -368.03125 " clip-rule="nonzero"/></clipPath><clipPath id="39dfc33ffe"><path d="M 329.71875 -368.03125 L 1093.132812 -215.519531 L 987.34375 314.015625 L 223.929688 161.503906 Z M 329.71875 -368.03125 " clip-rule="nonzero"/></clipPath><clipPath id="fe87a25214"><path d="M 0 397 L 215 397 L 215 600 L 0 600 Z M 0 397 " clip-rule="nonzero"/></clipPath><clipPath id="3fd3cc77bc"><path d="M 223.890625 407.0625 L 190.535156 1197.609375 L -357.976562 1174.464844 L -324.621094 383.917969 Z M 223.890625 407.0625 " clip-rule="nonzero"/></clipPath><clipPath id="6428ce79a3"><path d="M 223.890625 407.0625 L 190.535156 1197.609375 L -357.976562 1174.464844 L -324.621094 383.917969 Z M 223.890625 407.0625 " clip-rule="nonzero"/></clipPath></defs><g clip-path="url(#90ddc60a62)"><g clip-path="url(#3bee0e4133)"><g clip-path="url(#39dfc33ffe)"><path fill="#26479c" d="M 549.964844 -322.226562 C 548.21875 -322.867188 546.496094 -323.632812 544.691406 -324.125 C 530.703125 -327.9375 516.351562 -328.117188 503.984375 -320.75 C 493.730469 -314.199219 484.566406 -306.375 476.488281 -297.28125 C 468.804688 -288.296875 461.65625 -278.90625 455.042969 -269.105469 C 444.148438 -254.445312 434.773438 -238.476562 420.277344 -226.84375 C 411.394531 -219.0625 401.902344 -212.121094 391.796875 -206.015625 C 379.808594 -200.171875 367.523438 -195.03125 354.945312 -190.605469 C 342.894531 -185.742188 331.898438 -179.929688 326.847656 -166.605469 C 325.875 -164.035156 321.976562 -162.453125 319.25 -160.691406 C 316.238281 -158.738281 312.757812 -157.441406 309.925781 -155.265625 C 300.523438 -148 295.429688 -137.558594 290.269531 -127.28125 C 283.160156 -113.082031 275.859375 -98.789062 276.265625 -82.34375 C 276.371094 -71.453125 277.203125 -60.621094 278.765625 -49.847656 C 279.398438 -45.28125 280.445312 -40.816406 281.910156 -36.449219 C 283.371094 -32.078125 285.226562 -27.882812 287.46875 -23.859375 C 289.714844 -19.835938 292.308594 -16.054688 295.257812 -12.511719 C 298.207031 -8.972656 301.457031 -5.734375 305.007812 -2.800781 C 329.804688 17.359375 358.664062 29.328125 389.769531 36.296875 C 406.597656 39.5 422.949219 44.308594 438.828125 50.730469 C 442.5625 52.28125 446.214844 54 449.792969 55.882812 C 453.367188 57.769531 456.847656 59.816406 460.238281 62.019531 C 463.625 64.226562 466.90625 66.582031 470.078125 69.089844 C 473.25 71.59375 476.300781 74.242188 479.230469 77.027344 C 482.160156 79.8125 484.953125 82.726562 487.617188 85.769531 C 490.277344 88.8125 492.792969 91.96875 495.167969 95.242188 C 497.539062 98.515625 499.753906 101.890625 501.816406 105.367188 C 503.878906 108.84375 505.777344 112.410156 507.515625 116.058594 C 515.195312 132 523.179688 147.773438 531.28125 163.511719 C 541.195312 182.667969 553.449219 200.1875 568.042969 216.074219 C 569.546875 217.8125 571.167969 219.4375 572.898438 220.953125 C 574.628906 222.46875 576.453125 223.859375 578.375 225.121094 C 580.296875 226.386719 582.292969 227.515625 584.367188 228.503906 C 586.445312 229.496094 588.578125 230.339844 590.769531 231.039062 C 592.960938 231.734375 595.1875 232.28125 597.457031 232.671875 C 599.722656 233.066406 602.003906 233.300781 604.300781 233.378906 C 606.601562 233.460938 608.894531 233.382812 611.179688 233.144531 C 613.46875 232.910156 615.730469 232.519531 617.964844 231.976562 C 640.4375 227.335938 661.382812 218.347656 677.1875 200.613281 C 682.449219 194.546875 687.359375 188.210938 691.925781 181.601562 C 697.542969 174.152344 702.679688 166.382812 707.328125 158.292969 C 716.699219 140.855469 725.457031 123.207031 737.402344 107.160156 C 740.644531 102.707031 744.203125 98.523438 748.085938 94.609375 C 751.964844 90.699219 756.121094 87.105469 760.550781 83.828125 C 764.984375 80.554688 769.636719 77.632812 774.511719 75.066406 C 779.390625 72.5 784.433594 70.320312 789.644531 68.527344 C 792.796875 67.0625 796.113281 66.332031 799.589844 66.328125 C 808.1875 67.375 816.175781 64.855469 824.429688 63.609375 C 834.316406 62.351562 844.238281 61.949219 854.191406 62.394531 C 864.148438 62.84375 873.992188 64.132812 883.726562 66.269531 C 901.613281 69.65625 919.652344 71.753906 937.839844 72.570312 C 956.027344 73.386719 974.179688 72.910156 992.296875 71.136719 C 997.59375 70.71875 1002.78125 69.730469 1007.863281 68.175781 C 1012.945312 66.625 1017.796875 64.542969 1022.421875 61.929688 C 1024.226562 61.003906 1025.9375 59.933594 1027.558594 58.71875 C 1029.179688 57.503906 1030.683594 56.160156 1032.078125 54.691406 C 1033.472656 53.21875 1034.730469 51.640625 1035.855469 49.957031 C 1036.980469 48.273438 1037.957031 46.507812 1038.78125 44.65625 C 1040.933594 39.289062 1042.367188 33.738281 1043.085938 28 C 1043.800781 22.261719 1043.777344 16.527344 1043.007812 10.796875 C 1040.742188 -8.570312 1032.4375 -25.589844 1021.847656 -41.378906 C 1013.320312 -54.246094 1003.550781 -66.085938 992.53125 -76.898438 C 981.511719 -87.714844 969.492188 -97.261719 956.464844 -105.546875 C 946.035156 -112.34375 935.027344 -118.023438 923.445312 -122.59375 C 911.863281 -127.164062 899.945312 -130.527344 887.683594 -132.683594 C 860.667969 -136.949219 833.953125 -142.617188 807.53125 -149.675781 C 785.535156 -156.445312 764.058594 -164.582031 743.097656 -174.082031 C 730.398438 -179.910156 718.066406 -186.433594 706.101562 -193.644531 C 701.648438 -196.488281 697.453125 -199.664062 693.511719 -203.179688 C 691.085938 -205.121094 689.0625 -207.613281 686.496094 -209.332031 C 666.898438 -222.476562 652.105469 -240.367188 637.15625 -258.230469 C 628.269531 -269.394531 618.5 -279.730469 607.847656 -289.234375 C 590.742188 -303.722656 572.296875 -316.5625 549.964844 -322.226562 Z M 549.964844 -322.226562 " fill-opacity="1" fill-rule="nonzero"/></g></g></g><g clip-path="url(#fe87a25214)"><g clip-path="url(#3fd3cc77bc)"><g clip-path="url(#6428ce79a3)"><path fill="#2baaff" d="M 212.457031 635.414062 C 212.820312 633.5625 213.320312 631.714844 213.53125 629.824219 C 215.167969 615.179688 213.09375 600.742188 203.753906 589.472656 C 195.5625 580.210938 186.269531 572.234375 175.863281 565.546875 C 165.632812 559.238281 155.078125 553.535156 144.195312 548.433594 C 127.757812 539.792969 110.246094 532.882812 96.285156 520.152344 C 87.078125 512.457031 78.613281 504.011719 70.894531 494.820312 C 63.140625 483.699219 56.050781 472.171875 49.628906 460.230469 C 42.855469 448.894531 35.285156 438.765625 21.109375 435.785156 C 18.375 435.210938 16.175781 431.542969 13.976562 429.082031 C 11.542969 426.363281 9.695312 423.070312 7.0625 420.566406 C -1.710938 412.265625 -13 408.789062 -24.132812 405.222656 C -39.507812 400.3125 -55.011719 395.222656 -71.46875 398.210938 C -82.390625 400.023438 -93.140625 402.558594 -103.71875 405.820312 C -108.203125 407.171875 -112.523438 408.925781 -116.683594 411.078125 C -120.84375 413.234375 -124.765625 415.753906 -128.457031 418.636719 C -132.144531 421.523438 -135.535156 424.722656 -138.628906 428.242188 C -141.722656 431.757812 -144.464844 435.527344 -146.855469 439.554688 C -163.214844 467.617188 -170.707031 498.476562 -172.820312 530.808594 C -173.398438 548.207031 -175.664062 565.382812 -179.617188 582.335938 C -180.589844 586.328125 -181.742188 590.265625 -183.074219 594.152344 C -184.410156 598.039062 -185.917969 601.859375 -187.601562 605.605469 C -189.28125 609.355469 -191.132812 613.019531 -193.152344 616.597656 C -195.171875 620.175781 -197.351562 623.652344 -199.691406 627.03125 C -202.03125 630.410156 -204.519531 633.675781 -207.15625 636.824219 C -209.792969 639.976562 -212.570312 643 -215.488281 645.894531 C -218.402344 648.789062 -221.445312 651.546875 -224.613281 654.164062 C -227.78125 656.777344 -231.0625 659.246094 -234.457031 661.558594 C -249.265625 671.773438 -263.855469 682.269531 -278.390625 692.871094 C -296.078125 705.835938 -311.753906 720.890625 -325.421875 738.035156 C -326.929688 739.820312 -328.308594 741.703125 -329.558594 743.675781 C -330.808594 745.652344 -331.917969 747.703125 -332.886719 749.832031 C -333.855469 751.957031 -334.671875 754.140625 -335.34375 756.382812 C -336.011719 758.621094 -336.523438 760.894531 -336.882812 763.207031 C -337.238281 765.515625 -337.4375 767.839844 -337.472656 770.175781 C -337.511719 772.515625 -337.390625 774.84375 -337.109375 777.164062 C -336.828125 779.484375 -336.390625 781.773438 -335.796875 784.035156 C -335.199219 786.292969 -334.453125 788.503906 -333.554688 790.660156 C -325.367188 812.5 -313.050781 832.121094 -292.753906 845.210938 C -285.835938 849.542969 -278.699219 853.480469 -271.347656 857.027344 C -262.980469 861.503906 -254.371094 865.441406 -245.515625 868.839844 C -226.527344 875.511719 -207.425781 881.539062 -189.433594 891.015625 C -184.449219 893.570312 -179.6875 896.492188 -175.148438 899.773438 C -170.609375 903.058594 -166.347656 906.667969 -162.363281 910.601562 C -158.375 914.539062 -154.710938 918.753906 -151.367188 923.246094 C -148.027344 927.742188 -145.042969 932.464844 -142.421875 937.414062 C -140.460938 940.351562 -139.203125 943.566406 -138.65625 947.058594 C -138.359375 955.855469 -134.570312 963.480469 -132.023438 971.574219 C -129.210938 981.304688 -127.246094 991.203125 -126.132812 1001.273438 C -125.019531 1011.339844 -124.769531 1021.425781 -125.386719 1031.539062 C -125.980469 1050.03125 -125.257812 1068.472656 -123.222656 1086.867188 C -121.1875 1105.257812 -117.855469 1123.410156 -113.234375 1141.328125 C -111.980469 1146.582031 -110.175781 1151.636719 -107.816406 1156.496094 C -105.460938 1161.351562 -102.605469 1165.898438 -99.253906 1170.136719 C -98.042969 1171.800781 -96.699219 1173.351562 -95.226562 1174.789062 C -93.75 1176.222656 -92.164062 1177.527344 -90.46875 1178.695312 C -88.773438 1179.863281 -86.992188 1180.878906 -85.121094 1181.746094 C -83.253906 1182.609375 -81.324219 1183.3125 -79.339844 1183.851562 C -73.609375 1185.171875 -67.808594 1185.738281 -61.929688 1185.558594 C -56.054688 1185.378906 -50.296875 1184.453125 -44.660156 1182.785156 C -25.566406 1177.46875 -9.769531 1166.457031 4.425781 1153.347656 C 16.011719 1142.765625 26.371094 1131.09375 35.503906 1118.335938 C 44.636719 1105.574219 52.339844 1092.003906 58.617188 1077.621094 C 63.804688 1066.078125 67.785156 1054.136719 70.554688 1041.789062 C 73.328125 1029.441406 74.835938 1016.945312 75.078125 1004.292969 C 75.125 976.496094 76.621094 948.777344 79.566406 921.136719 C 82.910156 897.988281 87.710938 875.144531 93.964844 852.605469 C 97.828125 838.9375 102.441406 825.53125 107.808594 812.382812 C 109.960938 807.46875 112.496094 802.753906 115.410156 798.242188 C 116.976562 795.507812 119.164062 793.085938 120.484375 790.234375 C 130.613281 768.492188 146.261719 750.832031 161.855469 733.015625 C 171.679688 722.339844 180.527344 710.90625 188.398438 698.722656 C 200.269531 679.269531 210.273438 658.730469 212.457031 635.414062 Z M 212.457031 635.414062 " fill-opacity="1" fill-rule="nonzero"/></g></g></g></svg>