<svg xmlns="http://www.w3.org/2000/svg" xmlns:xlink="http://www.w3.org/1999/xlink" width="800" zoomAndPan="magnify" viewBox="0 0 600 599.999999" height="800" preserveAspectRatio="xMidYMid meet" version="1.0"><defs><clipPath id="24777a476a"><path d="M 0 187 L 600 187 L 600 600 L 0 600 Z M 0 187 " clip-rule="nonzero"/></clipPath><clipPath id="7a3e888914"><path d="M -500.78125 244.425781 L 552.105469 44.222656 L 690.941406 774.390625 L -361.941406 974.59375 Z M -500.78125 244.425781 " clip-rule="nonzero"/></clipPath><clipPath id="ddaeb78023"><path d="M -500.78125 244.425781 L 552.105469 44.222656 L 690.941406 774.390625 L -361.941406 974.59375 Z M -500.78125 244.425781 " clip-rule="nonzero"/></clipPath></defs><g clip-path="url(#24777a476a)"><g clip-path="url(#7a3e888914)"><g clip-path="url(#ddaeb78023)"><path fill="#26479c" d="M -196.09375 188.972656 C -198.648438 189.0625 -201.242188 188.972656 -203.796875 189.277344 C -223.617188 191.648438 -242.019531 198.839844 -253.992188 214.632812 C -263.683594 228.289062 -271.332031 243.003906 -276.9375 258.785156 C -282.097656 274.21875 -286.359375 289.894531 -289.730469 305.816406 C -296.046875 330.152344 -299.753906 355.367188 -312.234375 377.699219 C -319.542969 392.214844 -328.0625 405.980469 -337.800781 418.992188 C -350.074219 432.648438 -363.089844 445.554688 -376.851562 457.707031 C -389.714844 470.136719 -400.734375 483.242188 -400.289062 502.847656 C -400.203125 506.628906 -404.355469 510.660156 -406.925781 514.320312 C -409.757812 518.371094 -413.53125 521.824219 -416.019531 526.066406 C -424.257812 540.195312 -425.359375 556.144531 -426.625 571.925781 C -428.351562 593.707031 -430.28125 615.714844 -421.253906 636.484375 C -415.492188 650.320312 -408.828125 663.707031 -401.261719 676.644531 C -399.683594 679.386719 -397.980469 682.046875 -396.152344 684.632812 C -394.324219 687.214844 -392.382812 689.707031 -390.324219 692.109375 C -388.265625 694.515625 -386.101562 696.816406 -383.828125 699.019531 C -381.558594 701.21875 -379.1875 703.3125 -376.71875 705.292969 C -374.253906 707.273438 -371.699219 709.136719 -369.0625 710.882812 C -366.421875 712.628906 -363.707031 714.246094 -360.914062 715.738281 C -358.125 717.230469 -355.273438 718.589844 -352.355469 719.820312 C -349.4375 721.046875 -346.472656 722.136719 -343.453125 723.085938 C -301.394531 735.980469 -258.382812 736.324219 -215.09375 729.128906 C -191.96875 724.511719 -168.617188 722.195312 -145.035156 722.171875 C -139.472656 722.21875 -133.921875 722.523438 -128.382812 723.078125 C -122.84375 723.636719 -117.34375 724.445312 -111.882812 725.503906 C -106.417969 726.566406 -101.015625 727.875 -95.671875 729.429688 C -90.332031 730.988281 -85.070312 732.785156 -79.890625 734.824219 C -74.714844 736.863281 -69.640625 739.136719 -64.671875 741.640625 C -59.703125 744.144531 -54.859375 746.871094 -50.140625 749.820312 C -45.421875 752.769531 -40.847656 755.929688 -36.417969 759.296875 C -31.988281 762.664062 -27.722656 766.230469 -23.621094 769.988281 C -5.578125 786.351562 12.765625 802.34375 31.238281 818.226562 C 53.792969 837.535156 78.488281 853.550781 105.320312 866.269531 C 108.140625 867.707031 111.046875 868.941406 114.039062 869.980469 C 117.03125 871.019531 120.078125 871.847656 123.183594 872.464844 C 126.285156 873.085938 129.417969 873.492188 132.578125 873.679688 C 135.738281 873.871094 138.898438 873.84375 142.054688 873.601562 C 145.210938 873.359375 148.335938 872.902344 151.429688 872.230469 C 154.527344 871.558594 157.558594 870.679688 160.53125 869.59375 C 163.507812 868.503906 166.390625 867.21875 169.1875 865.738281 C 171.984375 864.253906 174.667969 862.585938 177.238281 860.738281 C 203.511719 843.199219 225.585938 820.902344 236.582031 790.109375 C 240.15625 779.648438 243.148438 769.027344 245.554688 758.238281 C 248.875 745.832031 251.40625 733.265625 253.15625 720.542969 C 256.09375 693.453125 258.144531 666.414062 265.085938 639.769531 C 266.917969 632.410156 269.296875 625.230469 272.226562 618.234375 C 275.15625 611.238281 278.601562 604.507812 282.558594 598.035156 C 286.515625 591.566406 290.945312 585.433594 295.839844 579.640625 C 300.734375 573.847656 306.042969 568.457031 311.761719 563.472656 C 315.03125 559.976562 318.882812 557.328125 323.316406 555.527344 C 334.824219 552.417969 343.714844 545.070312 353.601562 539.214844 C 365.566406 532.5 378.015625 526.855469 390.949219 522.277344 C 403.882812 517.699219 417.109375 514.257812 430.632812 511.949219 C 455.207031 507.015625 479.308594 500.367188 502.933594 492.003906 C 526.558594 483.640625 549.472656 473.644531 571.675781 462.015625 C 578.214844 458.742188 584.324219 454.800781 590.003906 450.191406 C 595.683594 445.582031 600.796875 440.417969 605.351562 434.691406 C 607.171875 432.582031 608.800781 430.332031 610.242188 427.941406 C 611.679688 425.554688 612.910156 423.0625 613.925781 420.46875 C 614.941406 417.871094 615.730469 415.207031 616.296875 412.476562 C 616.863281 409.746094 617.191406 406.988281 617.289062 404.203125 C 617.261719 396.246094 616.21875 388.421875 614.167969 380.730469 C 612.113281 373.042969 609.117188 365.738281 605.175781 358.824219 C 592.265625 335.292969 572.871094 317.875 551.199219 303.214844 C 542.457031 297.226562 533.425781 291.714844 524.101562 286.675781 C 514.78125 281.636719 505.222656 277.097656 495.425781 273.0625 C 485.628906 269.027344 475.644531 265.511719 465.480469 262.523438 C 455.3125 259.53125 445.019531 257.082031 434.597656 255.171875 C 417.773438 251.898438 400.792969 250.339844 383.652344 250.5 C 366.515625 250.660156 349.566406 252.535156 332.808594 256.121094 C 296.132812 264.644531 259.117188 271.234375 221.753906 275.890625 C 190.191406 278.628906 158.582031 279.359375 126.925781 278.074219 C 107.710938 277.207031 88.605469 275.265625 69.605469 272.253906 C 62.457031 270.929688 55.460938 269.046875 48.613281 266.601562 C 44.519531 265.378906 40.648438 263.246094 36.484375 262.382812 C 4.683594 255.746094 -23.441406 240.574219 -51.75 225.523438 C -68.867188 215.871094 -86.675781 207.742188 -105.175781 201.128906 C -134.496094 191.488281 -164.667969 184.648438 -196.09375 188.972656 Z M -196.09375 188.972656 " fill-opacity="1" fill-rule="nonzero"/></g></g></g></svg>