<svg xmlns="http://www.w3.org/2000/svg" xmlns:xlink="http://www.w3.org/1999/xlink" width="800" zoomAndPan="magnify" viewBox="0 0 600 599.999999" height="800" preserveAspectRatio="xMidYMid meet" version="1.0"><defs><clipPath id="6fbad6c82b"><path d="M 271 414 L 600 414 L 600 600 L 271 600 Z M 271 414 " clip-rule="nonzero"/></clipPath><clipPath id="2f9f485a4e"><path d="M 220.246094 1107.382812 L 411.601562 352.765625 L 935.035156 485.496094 L 743.679688 1240.113281 Z M 220.246094 1107.382812 " clip-rule="nonzero"/></clipPath><clipPath id="f7a123ace8"><path d="M 220.246094 1107.382812 L 411.601562 352.765625 L 935.035156 485.496094 L 743.679688 1240.113281 Z M 220.246094 1107.382812 " clip-rule="nonzero"/></clipPath><clipPath id="5d4f3de4b8"><path d="M 0 0 L 237 0 L 237 97 L 0 97 Z M 0 0 " clip-rule="nonzero"/></clipPath><clipPath id="46a128ce07"><path d="M 194.132812 -729.300781 L 344.792969 47.472656 L -194.164062 152.007812 L -344.824219 -624.765625 Z M 194.132812 -729.300781 " clip-rule="nonzero"/></clipPath><clipPath id="b10d5239cb"><path d="M 194.132812 -729.300781 L 344.792969 47.472656 L -194.164062 152.007812 L -344.824219 -624.765625 Z M 194.132812 -729.300781 " clip-rule="nonzero"/></clipPath></defs><rect x="-60" width="720" fill="#ffffff" y="-60" height="719.999999" fill-opacity="1"/><rect x="-60" width="720" fill="#ffffff" y="-60" height="719.999999" fill-opacity="1"/><rect x="-60" width="720" fill="#fdfcfc" y="-60" height="719.999999" fill-opacity="1"/><g clip-path="url(#6fbad6c82b)"><g clip-path="url(#2f9f485a4e)"><g clip-path="url(#f7a123ace8)"><path fill="#26479c" d="M 277.253906 889.769531 C 276.53125 891.480469 275.675781 893.15625 275.09375 894.933594 C 270.570312 908.710938 269.65625 923.035156 276.378906 935.765625 C 282.398438 946.335938 289.742188 955.886719 298.410156 964.421875 C 306.992188 972.554688 316.003906 980.175781 325.457031 987.28125 C 339.539062 998.910156 355.007812 1009.089844 365.882812 1024.164062 C 373.199219 1033.429688 379.648438 1043.265625 385.226562 1053.667969 C 390.453125 1065.941406 394.953125 1078.472656 398.734375 1091.261719 C 402.972656 1103.546875 408.21875 1114.824219 421.265625 1120.546875 C 423.78125 1121.652344 425.164062 1125.625 426.785156 1128.441406 C 428.578125 1131.546875 429.695312 1135.089844 431.726562 1138.03125 C 438.5 1147.792969 448.667969 1153.414062 458.667969 1159.089844 C 472.484375 1166.914062 486.382812 1174.9375 502.832031 1175.371094 C 513.710938 1175.828125 524.570312 1175.550781 535.414062 1174.539062 C 540.003906 1174.140625 544.515625 1173.324219 548.953125 1172.085938 C 553.390625 1170.847656 557.679688 1169.210938 561.8125 1167.175781 C 565.945312 1165.140625 569.855469 1162.742188 573.539062 1159.976562 C 577.226562 1157.214844 580.628906 1154.132812 583.742188 1150.738281 C 605.140625 1127.003906 618.570312 1098.792969 627.117188 1068.085938 C 631.179688 1051.445312 636.820312 1035.359375 644.042969 1019.828125 C 645.78125 1016.179688 647.683594 1012.617188 649.75 1009.144531 C 651.816406 1005.667969 654.039062 1002.296875 656.414062 999.027344 C 658.789062 995.753906 661.308594 992.597656 663.976562 989.558594 C 666.640625 986.519531 669.4375 983.609375 672.371094 980.824219 C 675.304688 978.042969 678.355469 975.398438 681.53125 972.898438 C 684.707031 970.394531 687.988281 968.042969 691.378906 965.839844 C 694.769531 963.640625 698.253906 961.597656 701.832031 959.714844 C 705.40625 957.835938 709.0625 956.121094 712.800781 954.574219 C 729.113281 947.71875 745.273438 940.550781 761.402344 933.265625 C 781.042969 924.34375 799.167969 913 815.78125 899.242188 C 817.589844 897.824219 819.296875 896.289062 820.898438 894.640625 C 822.5 892.988281 823.980469 891.238281 825.34375 889.382812 C 826.703125 887.53125 827.933594 885.59375 829.027344 883.570312 C 830.121094 881.546875 831.074219 879.460938 831.882812 877.308594 C 832.691406 875.15625 833.351562 872.957031 833.859375 870.714844 C 834.367188 868.46875 834.71875 866.203125 834.914062 863.914062 C 835.113281 861.621094 835.152344 859.328125 835.035156 857.03125 C 834.914062 854.734375 834.640625 852.457031 834.210938 850.195312 C 830.726562 827.515625 822.820312 806.140625 805.917969 789.449219 C 800.128906 783.882812 794.050781 778.652344 787.6875 773.757812 C 780.535156 767.761719 773.039062 762.238281 765.195312 757.179688 C 748.257812 746.929688 731.082031 737.28125 715.667969 724.53125 C 711.382812 721.066406 707.386719 717.296875 703.679688 713.222656 C 699.972656 709.144531 696.597656 704.8125 693.550781 700.21875 C 690.503906 695.625 687.824219 690.828125 685.511719 685.828125 C 683.199219 680.828125 681.28125 675.679688 679.753906 670.382812 C 678.457031 667.160156 677.894531 663.808594 678.070312 660.335938 C 679.554688 651.804688 677.445312 643.699219 676.621094 635.390625 C 675.875 625.453125 675.976562 615.523438 676.933594 605.605469 C 677.890625 595.6875 679.683594 585.921875 682.3125 576.308594 C 686.609375 558.617188 689.628906 540.710938 691.371094 522.589844 C 693.117188 504.46875 693.566406 486.3125 692.726562 468.128906 C 692.578125 462.816406 691.855469 457.585938 690.566406 452.429688 C 689.273438 447.277344 687.441406 442.324219 685.070312 437.570312 C 684.238281 435.722656 683.257812 433.960938 682.125 432.277344 C 680.996094 430.597656 679.730469 429.023438 678.335938 427.558594 C 676.9375 426.09375 675.425781 424.753906 673.800781 423.542969 C 672.175781 422.335938 670.460938 421.269531 668.65625 420.351562 C 663.40625 417.925781 657.9375 416.210938 652.242188 415.203125 C 646.546875 414.191406 640.820312 413.925781 635.058594 414.398438 C 615.601562 415.671875 598.175781 423.09375 581.867188 432.859375 C 568.582031 440.71875 556.257812 449.875 544.894531 460.324219 C 533.53125 470.773438 523.378906 482.292969 514.441406 494.878906 C 507.121094 504.949219 500.882812 515.648438 495.726562 526.980469 C 490.574219 538.316406 486.605469 550.046875 483.820312 562.183594 C 478.179688 588.941406 471.15625 615.335938 462.75 641.359375 C 454.867188 662.980469 445.644531 684.015625 435.082031 704.464844 C 428.613281 716.847656 421.46875 728.828125 413.65625 740.410156 C 410.589844 744.710938 407.199219 748.742188 403.488281 752.496094 C 401.425781 754.816406 398.835938 756.710938 396.984375 759.1875 C 382.855469 778.085938 364.234375 791.945312 345.628906 805.960938 C 334.023438 814.265625 323.203125 823.496094 313.167969 833.644531 C 297.820312 849.988281 284.054688 867.753906 277.253906 889.769531 Z M 277.253906 889.769531 " fill-opacity="1" fill-rule="nonzero"/></g></g></g><g clip-path="url(#5d4f3de4b8)"><g clip-path="url(#46a128ce07)"><g clip-path="url(#b10d5239cb)"><path fill="#2baaff" d="M 235.902344 -504.507812 C 235.828125 -506.398438 235.886719 -508.308594 235.652344 -510.195312 C 233.851562 -524.824219 228.488281 -538.390625 216.792969 -547.183594 C 206.679688 -554.300781 195.789062 -559.90625 184.121094 -564 C 172.707031 -567.769531 161.117188 -570.871094 149.347656 -573.316406 C 131.355469 -577.914062 112.71875 -580.578125 96.191406 -589.730469 C 85.453125 -595.085938 75.261719 -601.339844 65.625 -608.492188 C 55.503906 -617.511719 45.9375 -627.085938 36.921875 -637.214844 C 27.707031 -646.675781 18 -654.777344 3.519531 -654.390625 C 0.726562 -654.316406 -2.261719 -657.371094 -4.972656 -659.257812 C -7.96875 -661.339844 -10.53125 -664.113281 -13.671875 -665.941406 C -24.128906 -671.984375 -35.914062 -672.75 -47.570312 -673.644531 C -63.667969 -674.855469 -79.925781 -676.21875 -95.246094 -669.496094 C -105.449219 -665.207031 -115.320312 -660.246094 -124.855469 -654.625 C -128.90625 -652.273438 -132.703125 -649.566406 -136.25 -646.507812 C -139.796875 -643.449219 -143.03125 -640.089844 -145.949219 -636.425781 C -148.871094 -632.765625 -151.429688 -628.867188 -153.625 -624.730469 C -155.820312 -620.59375 -157.613281 -616.289062 -159.007812 -611.816406 C -168.417969 -580.730469 -168.558594 -548.972656 -163.128906 -517.03125 C -159.660156 -499.972656 -157.882812 -482.738281 -157.804688 -465.332031 C -157.824219 -461.222656 -158.035156 -457.125 -158.429688 -453.035156 C -158.828125 -448.945312 -159.410156 -444.878906 -160.179688 -440.84375 C -160.949219 -436.808594 -161.902344 -432.816406 -163.035156 -428.867188 C -164.171875 -424.917969 -165.488281 -421.027344 -166.980469 -417.199219 C -168.472656 -413.371094 -170.136719 -409.621094 -171.972656 -405.945312 C -173.808594 -402.269531 -175.8125 -398.683594 -177.976562 -395.191406 C -180.140625 -391.699219 -182.464844 -388.316406 -184.941406 -385.035156 C -187.417969 -381.757812 -190.039062 -378.597656 -192.804688 -375.558594 C -204.84375 -362.191406 -216.605469 -348.601562 -228.289062 -334.921875 C -242.492188 -318.214844 -254.253906 -299.941406 -263.578125 -280.09375 C -264.632812 -278.007812 -265.539062 -275.859375 -266.296875 -273.648438 C -267.054688 -271.4375 -267.660156 -269.183594 -268.109375 -266.890625 C -268.558594 -264.597656 -268.847656 -262.28125 -268.980469 -259.949219 C -269.113281 -257.613281 -269.085938 -255.28125 -268.898438 -252.953125 C -268.710938 -250.625 -268.363281 -248.316406 -267.859375 -246.035156 C -267.355469 -243.753906 -266.699219 -241.515625 -265.886719 -239.324219 C -265.078125 -237.128906 -264.121094 -235.003906 -263.015625 -232.941406 C -261.914062 -230.882812 -260.675781 -228.90625 -259.300781 -227.015625 C -246.277344 -207.664062 -229.75 -191.429688 -206.976562 -183.398438 C -199.242188 -180.789062 -191.386719 -178.609375 -183.414062 -176.863281 C -174.238281 -174.445312 -164.949219 -172.609375 -155.546875 -171.355469 C -135.53125 -169.261719 -115.554688 -167.820312 -95.855469 -162.773438 C -90.414062 -161.441406 -85.105469 -159.703125 -79.929688 -157.558594 C -74.753906 -155.417969 -69.773438 -152.894531 -64.984375 -149.988281 C -60.195312 -147.085938 -55.652344 -143.832031 -51.359375 -140.234375 C -47.066406 -136.636719 -43.074219 -132.734375 -39.375 -128.523438 C -36.785156 -126.121094 -34.820312 -123.285156 -33.476562 -120.015625 C -31.148438 -111.527344 -25.699219 -104.984375 -21.347656 -97.699219 C -16.355469 -88.886719 -12.152344 -79.710938 -8.738281 -70.175781 C -5.324219 -60.640625 -2.742188 -50.882812 -1.003906 -40.90625 C 2.703125 -22.777344 7.679688 -5.003906 13.917969 12.414062 C 20.160156 29.835938 27.601562 46.722656 36.25 63.082031 C 38.6875 67.902344 41.613281 72.402344 45.035156 76.582031 C 48.453125 80.761719 52.28125 84.523438 56.523438 87.867188 C 58.085938 89.207031 59.753906 90.40625 61.519531 91.460938 C 63.289062 92.515625 65.132812 93.417969 67.050781 94.160156 C 68.972656 94.902344 70.941406 95.480469 72.960938 95.890625 C 74.976562 96.296875 77.015625 96.535156 79.074219 96.597656 C 84.953125 96.554688 90.730469 95.765625 96.402344 94.226562 C 102.078125 92.691406 107.464844 90.457031 112.558594 87.527344 C 129.90625 77.933594 142.71875 63.566406 153.496094 47.523438 C 162.316406 34.546875 169.691406 20.792969 175.617188 6.261719 C 181.546875 -8.265625 185.894531 -23.253906 188.671875 -38.695312 C 191.046875 -51.125 192.152344 -63.667969 191.988281 -76.320312 C 191.824219 -88.972656 190.394531 -101.480469 187.699219 -113.84375 C 181.304688 -140.894531 176.339844 -168.207031 172.804688 -195.777344 C 170.699219 -219.070312 170.078125 -242.40625 170.941406 -265.78125 C 171.53125 -279.96875 172.914062 -294.082031 175.089844 -308.113281 C 176.046875 -313.398438 177.417969 -318.570312 179.207031 -323.628906 C 180.101562 -326.65625 181.664062 -329.519531 182.292969 -332.597656 C 187.109375 -356.09375 198.242188 -376.898438 209.285156 -397.84375 C 216.367188 -410.503906 222.328125 -423.675781 227.164062 -437.351562 C 234.203125 -459.027344 239.175781 -481.324219 235.902344 -504.507812 Z M 235.902344 -504.507812 " fill-opacity="1" fill-rule="nonzero"/></g></g></g></svg>