<svg xmlns="http://www.w3.org/2000/svg" xmlns:xlink="http://www.w3.org/1999/xlink" width="800" zoomAndPan="magnify" viewBox="0 0 600 599.999999" height="800" preserveAspectRatio="xMidYMid meet" version="1.0"><defs><clipPath id="a86feac56d"><path d="M 395 0 L 600 0 L 600 272 L 395 272 Z M 395 0 " clip-rule="nonzero"/></clipPath><clipPath id="2d9dd622ca"><path d="M 270.09375 69.804688 L 770.15625 -526.855469 L 1184.023438 -179.992188 L 683.964844 416.667969 Z M 270.09375 69.804688 " clip-rule="nonzero"/></clipPath><clipPath id="7cb00e8afd"><path d="M 270.09375 69.804688 L 770.15625 -526.855469 L 1184.023438 -179.992188 L 683.964844 416.667969 Z M 270.09375 69.804688 " clip-rule="nonzero"/></clipPath><clipPath id="4367feee9f"><path d="M 0 249 L 150 249 L 150 600 L 0 600 Z M 0 249 " clip-rule="nonzero"/></clipPath><clipPath id="a6e3cf8c2b"><path d="M 106.828125 195.21875 L 257.488281 971.992188 L -281.46875 1076.527344 L -432.128906 299.753906 Z M 106.828125 195.21875 " clip-rule="nonzero"/></clipPath><clipPath id="5912b2759f"><path d="M 106.828125 195.21875 L 257.488281 971.992188 L -281.46875 1076.527344 L -432.128906 299.753906 Z M 106.828125 195.21875 " clip-rule="nonzero"/></clipPath></defs><g clip-path="url(#a86feac56d)"><g clip-path="url(#2d9dd622ca)"><g clip-path="url(#7cb00e8afd)"><path fill="#26479c" d="M 415.945312 -101.464844 C 414.546875 -100.238281 413.050781 -99.097656 411.753906 -97.75 C 401.695312 -87.304688 394.65625 -74.800781 395.183594 -60.414062 C 396.011719 -48.277344 398.480469 -36.484375 402.585938 -25.03125 C 406.78125 -13.976562 411.589844 -3.199219 417.019531 7.304688 C 424.65625 23.894531 434.167969 39.785156 437.421875 58.082031 C 439.984375 69.605469 441.523438 81.265625 442.03125 93.0625 C 441.410156 106.386719 440.023438 119.628906 437.875 132.792969 C 436.359375 145.695312 436.183594 158.132812 445.453125 168.957031 C 447.242188 171.042969 446.757812 175.222656 446.996094 178.460938 C 447.265625 182.039062 446.734375 185.71875 447.285156 189.246094 C 449.148438 200.980469 455.863281 210.460938 462.410156 219.917969 C 471.453125 232.964844 480.492188 246.226562 495.121094 253.761719 C 504.722656 258.894531 514.625 263.359375 524.832031 267.15625 C 529.136719 268.792969 533.558594 270.015625 538.09375 270.828125 C 542.628906 271.640625 547.199219 272.027344 551.808594 271.988281 C 556.414062 271.949219 560.980469 271.488281 565.5 270.597656 C 570.019531 269.710938 574.421875 268.410156 578.699219 266.703125 C 608.28125 254.621094 632.628906 235.039062 653.664062 211.089844 C 664.546875 197.863281 676.617188 185.820312 689.867188 174.96875 C 693.015625 172.4375 696.277344 170.054688 699.648438 167.824219 C 703.019531 165.589844 706.484375 163.515625 710.042969 161.601562 C 713.605469 159.6875 717.246094 157.9375 720.964844 156.359375 C 724.6875 154.777344 728.472656 153.371094 732.320312 152.136719 C 736.171875 150.902344 740.070312 149.847656 744.015625 148.972656 C 747.960938 148.097656 751.941406 147.402344 755.949219 146.890625 C 759.960938 146.382812 763.984375 146.054688 768.023438 145.914062 C 772.066406 145.773438 776.101562 145.816406 780.136719 146.042969 C 797.808594 146.953125 815.480469 147.511719 833.175781 147.957031 C 854.738281 148.445312 875.992188 146.101562 896.929688 140.917969 C 899.179688 140.429688 901.382812 139.789062 903.539062 139 C 905.699219 138.207031 907.792969 137.273438 909.824219 136.191406 C 911.855469 135.113281 913.804688 133.902344 915.667969 132.554688 C 917.535156 131.210938 919.296875 129.742188 920.960938 128.15625 C 922.625 126.566406 924.171875 124.875 925.605469 123.074219 C 927.035156 121.273438 928.335938 119.382812 929.507812 117.40625 C 930.683594 115.425781 931.714844 113.378906 932.605469 111.257812 C 933.496094 109.136719 934.238281 106.964844 934.832031 104.746094 C 941.542969 82.800781 943.703125 60.109375 935.726562 37.734375 C 932.925781 30.210938 929.722656 22.859375 926.117188 15.683594 C 922.277344 7.179688 917.921875 -1.054688 913.054688 -9.015625 C 902.25 -25.601562 890.96875 -41.75 882.617188 -59.929688 C 880.261719 -64.910156 878.300781 -70.042969 876.730469 -75.324219 C 875.160156 -80.605469 874 -85.976562 873.253906 -91.4375 C 872.503906 -96.894531 872.171875 -102.378906 872.261719 -107.890625 C 872.351562 -113.398438 872.855469 -118.871094 873.78125 -124.300781 C 874.011719 -127.769531 874.960938 -131.03125 876.625 -134.082031 C 881.667969 -141.121094 883.289062 -149.34375 886.15625 -157.183594 C 889.796875 -166.460938 894.199219 -175.359375 899.371094 -183.878906 C 904.539062 -192.398438 910.394531 -200.417969 916.9375 -207.933594 C 928.488281 -222.003906 938.984375 -236.824219 948.425781 -252.390625 C 957.867188 -267.957031 966.15625 -284.113281 973.292969 -300.859375 C 975.464844 -305.710938 977.089844 -310.734375 978.164062 -315.9375 C 979.238281 -321.140625 979.738281 -326.398438 979.667969 -331.710938 C 979.71875 -333.734375 979.601562 -335.75 979.3125 -337.753906 C 979.023438 -339.761719 978.570312 -341.726562 977.949219 -343.652344 C 977.324219 -345.582031 976.546875 -347.441406 975.609375 -349.238281 C 974.667969 -351.035156 973.585938 -352.738281 972.359375 -354.347656 C 968.683594 -358.8125 964.5 -362.734375 959.808594 -366.117188 C 955.121094 -369.496094 950.074219 -372.226562 944.679688 -374.304688 C 926.597656 -381.605469 907.679688 -382.484375 888.75 -380.769531 C 873.367188 -379.460938 858.289062 -376.566406 843.515625 -372.085938 C 828.742188 -367.605469 814.597656 -361.636719 801.078125 -354.183594 C 790.113281 -348.289062 779.847656 -341.359375 770.28125 -333.390625 C 760.71875 -325.421875 752.046875 -316.574219 744.273438 -306.851562 C 727.566406 -285.195312 709.78125 -264.472656 690.910156 -244.679688 C 674.417969 -228.625 656.976562 -213.683594 638.582031 -199.851562 C 627.378906 -191.503906 615.738281 -183.8125 603.671875 -176.773438 C 599.042969 -174.230469 594.238281 -172.074219 589.265625 -170.300781 C 586.398438 -169.109375 583.242188 -168.527344 580.503906 -167.101562 C 559.566406 -156.210938 536.773438 -151.816406 513.929688 -147.265625 C 499.867188 -144.824219 486.113281 -141.210938 472.664062 -136.425781 C 451.742188 -128.367188 431.628906 -118.34375 415.945312 -101.464844 Z M 415.945312 -101.464844 " fill-opacity="1" fill-rule="nonzero"/></g></g></g><g clip-path="url(#4367feee9f)"><g clip-path="url(#a6e3cf8c2b)"><g clip-path="url(#5912b2759f)"><path fill="#2baaff" d="M 148.59375 420.011719 C 148.523438 418.121094 148.582031 416.210938 148.347656 414.320312 C 146.546875 399.695312 141.183594 386.128906 129.488281 377.335938 C 119.375 370.21875 108.484375 364.613281 96.816406 360.519531 C 85.402344 356.75 73.8125 353.648438 62.042969 351.203125 C 44.050781 346.605469 25.414062 343.941406 8.886719 334.789062 C -1.855469 329.433594 -12.042969 323.179688 -21.679688 316.027344 C -31.800781 307.003906 -41.367188 297.429688 -50.382812 287.304688 C -59.597656 277.84375 -69.304688 269.742188 -83.785156 270.128906 C -86.578125 270.203125 -89.566406 267.148438 -92.277344 265.261719 C -95.273438 263.179688 -97.835938 260.40625 -100.976562 258.578125 C -111.433594 252.535156 -123.21875 251.769531 -134.878906 250.875 C -150.972656 249.660156 -167.234375 248.300781 -182.550781 255.023438 C -192.753906 259.3125 -202.625 264.269531 -212.160156 269.894531 C -216.210938 272.246094 -220.007812 274.953125 -223.554688 278.011719 C -227.101562 281.070312 -230.335938 284.429688 -233.257812 288.09375 C -236.175781 291.753906 -238.734375 295.652344 -240.929688 299.789062 C -243.125 303.925781 -244.917969 308.230469 -246.3125 312.703125 C -255.722656 343.789062 -255.863281 375.546875 -250.433594 407.488281 C -246.964844 424.546875 -245.191406 441.78125 -245.109375 459.1875 C -245.132812 463.296875 -245.339844 467.394531 -245.734375 471.484375 C -246.132812 475.574219 -246.714844 479.640625 -247.484375 483.675781 C -248.253906 487.710938 -249.207031 491.703125 -250.34375 495.652344 C -251.476562 499.601562 -252.792969 503.492188 -254.285156 507.320312 C -255.777344 511.148438 -257.441406 514.898438 -259.277344 518.574219 C -261.117188 522.25 -263.117188 525.835938 -265.28125 529.328125 C -267.449219 532.820312 -269.769531 536.203125 -272.246094 539.484375 C -274.722656 542.761719 -277.34375 545.921875 -280.109375 548.960938 C -292.148438 562.328125 -303.910156 575.917969 -315.59375 589.597656 C -329.796875 606.304688 -341.558594 624.578125 -350.882812 644.425781 C -351.9375 646.511719 -352.84375 648.660156 -353.601562 650.871094 C -354.359375 653.082031 -354.964844 655.335938 -355.414062 657.628906 C -355.863281 659.921875 -356.152344 662.238281 -356.285156 664.570312 C -356.417969 666.90625 -356.390625 669.234375 -356.203125 671.566406 C -356.015625 673.894531 -355.667969 676.203125 -355.164062 678.484375 C -354.660156 680.765625 -354.003906 683.003906 -353.191406 685.195312 C -352.382812 687.390625 -351.425781 689.515625 -350.320312 691.578125 C -349.21875 693.636719 -347.980469 695.613281 -346.605469 697.503906 C -333.582031 716.855469 -317.054688 733.089844 -294.28125 741.121094 C -286.546875 743.730469 -278.691406 745.910156 -270.71875 747.65625 C -261.542969 750.074219 -252.257812 751.910156 -242.851562 753.164062 C -222.835938 755.257812 -202.859375 756.695312 -183.160156 761.746094 C -177.71875 763.078125 -172.410156 764.816406 -167.234375 766.960938 C -162.058594 769.101562 -157.078125 771.625 -152.289062 774.53125 C -147.5 777.433594 -142.957031 780.6875 -138.664062 784.285156 C -134.371094 787.882812 -130.378906 791.785156 -126.683594 795.996094 C -124.089844 798.398438 -122.125 801.234375 -120.78125 804.503906 C -118.457031 812.992188 -113.003906 819.535156 -108.652344 826.816406 C -103.660156 835.632812 -99.457031 844.808594 -96.042969 854.34375 C -92.628906 863.878906 -90.050781 873.636719 -88.308594 883.613281 C -84.601562 901.742188 -79.628906 919.515625 -73.386719 936.933594 C -67.144531 954.355469 -59.703125 971.242188 -51.054688 987.601562 C -48.617188 992.421875 -45.691406 996.921875 -42.273438 1001.101562 C -38.851562 1005.28125 -35.023438 1009.042969 -30.78125 1012.386719 C -29.21875 1013.726562 -27.550781 1014.925781 -25.785156 1015.980469 C -24.015625 1017.035156 -22.171875 1017.9375 -20.253906 1018.679688 C -18.332031 1019.421875 -16.363281 1020 -14.347656 1020.410156 C -12.328125 1020.816406 -10.289062 1021.054688 -8.230469 1021.117188 C -2.351562 1021.074219 3.421875 1020.285156 9.097656 1018.746094 C 14.773438 1017.210938 20.15625 1014.976562 25.253906 1012.046875 C 42.601562 1002.453125 55.414062 988.085938 66.1875 972.042969 C 75.011719 959.066406 82.382812 945.3125 88.3125 930.78125 C 94.238281 916.253906 98.589844 901.265625 101.367188 885.824219 C 103.738281 873.394531 104.84375 860.851562 104.679688 848.199219 C 104.519531 835.546875 103.089844 823.039062 100.394531 810.675781 C 94 783.625 89.035156 756.3125 85.5 728.742188 C 83.390625 705.449219 82.769531 682.113281 83.632812 658.738281 C 84.222656 644.550781 85.605469 630.4375 87.785156 616.40625 C 88.742188 611.121094 90.113281 605.949219 91.902344 600.890625 C 92.796875 597.863281 94.359375 595 94.988281 591.921875 C 99.804688 568.425781 110.9375 547.621094 121.980469 526.675781 C 129.0625 514.015625 135.019531 500.84375 139.855469 487.164062 C 146.898438 465.492188 151.871094 443.195312 148.59375 420.011719 Z M 148.59375 420.011719 " fill-opacity="1" fill-rule="nonzero"/></g></g></g></svg>