<svg xmlns="http://www.w3.org/2000/svg" xmlns:xlink="http://www.w3.org/1999/xlink" width="800" zoomAndPan="magnify" viewBox="0 0 600 599.999999" height="800" preserveAspectRatio="xMidYMid meet" version="1.0"><defs><clipPath id="a6918d3338"><path d="M 341 42 L 600 42 L 600 361 L 341 361 Z M 341 42 " clip-rule="nonzero"/></clipPath><clipPath id="2e183741d1"><path d="M 439.9375 442.894531 L 278.421875 77.230469 L 578.914062 -55.5 L 740.429688 310.167969 Z M 439.9375 442.894531 " clip-rule="nonzero"/></clipPath><clipPath id="8c185ff864"><path d="M 439.9375 442.894531 L 278.421875 77.230469 L 578.914062 -55.5 L 740.429688 310.167969 Z M 439.9375 442.894531 " clip-rule="nonzero"/></clipPath><clipPath id="8a6542bd79"><path d="M 611.308594 359.136719 C 647.539062 350.933594 660.832031 129.960938 548.515625 68.882812 C 436.195312 7.804688 327.210938 57.246094 343.535156 159.425781 C 359.859375 261.601562 448.863281 207.128906 499.925781 248.691406 C 550.992188 290.253906 553.019531 372.320312 611.308594 359.136719 Z M 611.308594 359.136719 " clip-rule="nonzero"/></clipPath><linearGradient x1="-3.679835" gradientTransform="matrix(-0.800598, -1.812524, 1.812376, -0.800533, 457.15634, 427.44487)" y1="64.919998" x2="220.223779" gradientUnits="userSpaceOnUse" y2="64.919998" id="860f5030c4"><stop stop-opacity="1" stop-color="rgb(5.499268%, 21.598816%, 94.499207%)" offset="0"/><stop stop-opacity="1" stop-color="rgb(5.499268%, 21.598816%, 94.499207%)" offset="0.015625"/><stop stop-opacity="1" stop-color="rgb(5.53894%, 21.624756%, 94.3573%)" offset="0.0234375"/><stop stop-opacity="1" stop-color="rgb(5.622864%, 21.681213%, 94.059753%)" offset="0.03125"/><stop stop-opacity="1" stop-color="rgb(5.711365%, 21.739197%, 93.743896%)" offset="0.0390625"/><stop stop-opacity="1" stop-color="rgb(5.801392%, 21.798706%, 93.429565%)" offset="0.046875"/><stop stop-opacity="1" stop-color="rgb(5.889893%, 21.856689%, 93.113708%)" offset="0.0546875"/><stop stop-opacity="1" stop-color="rgb(5.978394%, 21.914673%, 92.799377%)" offset="0.0625"/><stop stop-opacity="1" stop-color="rgb(6.06842%, 21.974182%, 92.485046%)" offset="0.0703125"/><stop stop-opacity="1" stop-color="rgb(6.156921%, 22.032166%, 92.169189%)" offset="0.078125"/><stop stop-opacity="1" stop-color="rgb(6.245422%, 22.091675%, 91.854858%)" offset="0.0859375"/><stop stop-opacity="1" stop-color="rgb(6.333923%, 22.149658%, 91.539001%)" offset="0.09375"/><stop stop-opacity="1" stop-color="rgb(6.42395%, 22.209167%, 91.22467%)" offset="0.101563"/><stop stop-opacity="1" stop-color="rgb(6.512451%, 22.267151%, 90.908813%)" offset="0.109375"/><stop stop-opacity="1" stop-color="rgb(6.600952%, 22.325134%, 90.594482%)" offset="0.117188"/><stop stop-opacity="1" stop-color="rgb(6.689453%, 22.384644%, 90.280151%)" offset="0.125"/><stop stop-opacity="1" stop-color="rgb(6.77948%, 22.442627%, 89.964294%)" offset="0.132812"/><stop stop-opacity="1" stop-color="rgb(6.867981%, 22.502136%, 89.649963%)" offset="0.140625"/><stop stop-opacity="1" stop-color="rgb(6.956482%, 22.56012%, 89.334106%)" offset="0.148438"/><stop stop-opacity="1" stop-color="rgb(7.044983%, 22.619629%, 89.019775%)" offset="0.15625"/><stop stop-opacity="1" stop-color="rgb(7.13501%, 22.677612%, 88.705444%)" offset="0.164062"/><stop stop-opacity="1" stop-color="rgb(7.223511%, 22.735596%, 88.389587%)" offset="0.171875"/><stop stop-opacity="1" stop-color="rgb(7.312012%, 22.795105%, 88.075256%)" offset="0.179688"/><stop stop-opacity="1" stop-color="rgb(7.402039%, 22.853088%, 87.759399%)" offset="0.1875"/><stop stop-opacity="1" stop-color="rgb(7.49054%, 22.912598%, 87.445068%)" offset="0.195313"/><stop stop-opacity="1" stop-color="rgb(7.579041%, 22.970581%, 87.129211%)" offset="0.203125"/><stop stop-opacity="1" stop-color="rgb(7.667542%, 23.03009%, 86.81488%)" offset="0.210938"/><stop stop-opacity="1" stop-color="rgb(7.757568%, 23.088074%, 86.500549%)" offset="0.21875"/><stop stop-opacity="1" stop-color="rgb(7.846069%, 23.147583%, 86.184692%)" offset="0.226562"/><stop stop-opacity="1" stop-color="rgb(7.93457%, 23.205566%, 85.870361%)" offset="0.234375"/><stop stop-opacity="1" stop-color="rgb(8.023071%, 23.26355%, 85.554504%)" offset="0.242188"/><stop stop-opacity="1" stop-color="rgb(8.113098%, 23.323059%, 85.240173%)" offset="0.25"/><stop stop-opacity="1" stop-color="rgb(8.201599%, 23.381042%, 84.925842%)" offset="0.257812"/><stop stop-opacity="1" stop-color="rgb(8.2901%, 23.440552%, 84.609985%)" offset="0.265625"/><stop stop-opacity="1" stop-color="rgb(8.378601%, 23.498535%, 84.295654%)" offset="0.273437"/><stop stop-opacity="1" stop-color="rgb(8.468628%, 23.558044%, 83.979797%)" offset="0.28125"/><stop stop-opacity="1" stop-color="rgb(8.557129%, 23.616028%, 83.665466%)" offset="0.289062"/><stop stop-opacity="1" stop-color="rgb(8.64563%, 23.674011%, 83.351135%)" offset="0.296875"/><stop stop-opacity="1" stop-color="rgb(8.735657%, 23.733521%, 83.035278%)" offset="0.304688"/><stop stop-opacity="1" stop-color="rgb(8.824158%, 23.791504%, 82.720947%)" offset="0.3125"/><stop stop-opacity="1" stop-color="rgb(8.912659%, 23.851013%, 82.40509%)" offset="0.320312"/><stop stop-opacity="1" stop-color="rgb(9.00116%, 23.908997%, 82.090759%)" offset="0.328125"/><stop stop-opacity="1" stop-color="rgb(9.091187%, 23.968506%, 81.774902%)" offset="0.335938"/><stop stop-opacity="1" stop-color="rgb(9.179688%, 24.026489%, 81.460571%)" offset="0.34375"/><stop stop-opacity="1" stop-color="rgb(9.268188%, 24.084473%, 81.14624%)" offset="0.351562"/><stop stop-opacity="1" stop-color="rgb(9.356689%, 24.143982%, 80.830383%)" offset="0.359375"/><stop stop-opacity="1" stop-color="rgb(9.446716%, 24.201965%, 80.516052%)" offset="0.367188"/><stop stop-opacity="1" stop-color="rgb(9.535217%, 24.261475%, 80.200195%)" offset="0.375"/><stop stop-opacity="1" stop-color="rgb(9.623718%, 24.319458%, 79.885864%)" offset="0.382812"/><stop stop-opacity="1" stop-color="rgb(9.712219%, 24.378967%, 79.571533%)" offset="0.390625"/><stop stop-opacity="1" stop-color="rgb(9.802246%, 24.436951%, 79.255676%)" offset="0.398438"/><stop stop-opacity="1" stop-color="rgb(9.890747%, 24.494934%, 78.941345%)" offset="0.40625"/><stop stop-opacity="1" stop-color="rgb(9.979248%, 24.554443%, 78.625488%)" offset="0.414063"/><stop stop-opacity="1" stop-color="rgb(10.069275%, 24.612427%, 78.311157%)" offset="0.421875"/><stop stop-opacity="1" stop-color="rgb(10.157776%, 24.671936%, 77.9953%)" offset="0.429688"/><stop stop-opacity="1" stop-color="rgb(10.246277%, 24.729919%, 77.680969%)" offset="0.4375"/><stop stop-opacity="1" stop-color="rgb(10.334778%, 24.789429%, 77.366638%)" offset="0.445312"/><stop stop-opacity="1" stop-color="rgb(10.424805%, 24.847412%, 77.050781%)" offset="0.453125"/><stop stop-opacity="1" stop-color="rgb(10.513306%, 24.905396%, 76.73645%)" offset="0.460938"/><stop stop-opacity="1" stop-color="rgb(10.601807%, 24.964905%, 76.420593%)" offset="0.46875"/><stop stop-opacity="1" stop-color="rgb(10.690308%, 25.022888%, 76.106262%)" offset="0.476563"/><stop stop-opacity="1" stop-color="rgb(10.780334%, 25.082397%, 75.791931%)" offset="0.484375"/><stop stop-opacity="1" stop-color="rgb(10.868835%, 25.140381%, 75.476074%)" offset="0.492187"/><stop stop-opacity="1" stop-color="rgb(10.957336%, 25.19989%, 75.161743%)" offset="0.5"/><stop stop-opacity="1" stop-color="rgb(11.045837%, 25.257874%, 74.845886%)" offset="0.507812"/><stop stop-opacity="1" stop-color="rgb(11.135864%, 25.315857%, 74.531555%)" offset="0.515625"/><stop stop-opacity="1" stop-color="rgb(11.224365%, 25.375366%, 74.215698%)" offset="0.523438"/><stop stop-opacity="1" stop-color="rgb(11.312866%, 25.43335%, 73.901367%)" offset="0.53125"/><stop stop-opacity="1" stop-color="rgb(11.402893%, 25.492859%, 73.587036%)" offset="0.539062"/><stop stop-opacity="1" stop-color="rgb(11.491394%, 25.550842%, 73.271179%)" offset="0.546875"/><stop stop-opacity="1" stop-color="rgb(11.579895%, 25.610352%, 72.956848%)" offset="0.554688"/><stop stop-opacity="1" stop-color="rgb(11.668396%, 25.668335%, 72.640991%)" offset="0.5625"/><stop stop-opacity="1" stop-color="rgb(11.758423%, 25.726318%, 72.32666%)" offset="0.570312"/><stop stop-opacity="1" stop-color="rgb(11.846924%, 25.785828%, 72.012329%)" offset="0.578125"/><stop stop-opacity="1" stop-color="rgb(11.935425%, 25.843811%, 71.696472%)" offset="0.585938"/><stop stop-opacity="1" stop-color="rgb(12.023926%, 25.90332%, 71.382141%)" offset="0.59375"/><stop stop-opacity="1" stop-color="rgb(12.113953%, 25.961304%, 71.066284%)" offset="0.601562"/><stop stop-opacity="1" stop-color="rgb(12.202454%, 26.020813%, 70.751953%)" offset="0.609375"/><stop stop-opacity="1" stop-color="rgb(12.290955%, 26.078796%, 70.437622%)" offset="0.617188"/><stop stop-opacity="1" stop-color="rgb(12.380981%, 26.138306%, 70.121765%)" offset="0.625"/><stop stop-opacity="1" stop-color="rgb(12.469482%, 26.196289%, 69.807434%)" offset="0.632812"/><stop stop-opacity="1" stop-color="rgb(12.557983%, 26.254272%, 69.491577%)" offset="0.640625"/><stop stop-opacity="1" stop-color="rgb(12.646484%, 26.313782%, 69.177246%)" offset="0.648438"/><stop stop-opacity="1" stop-color="rgb(12.736511%, 26.371765%, 68.861389%)" offset="0.65625"/><stop stop-opacity="1" stop-color="rgb(12.825012%, 26.431274%, 68.547058%)" offset="0.664062"/><stop stop-opacity="1" stop-color="rgb(12.913513%, 26.489258%, 68.232727%)" offset="0.671875"/><stop stop-opacity="1" stop-color="rgb(13.002014%, 26.548767%, 67.91687%)" offset="0.679688"/><stop stop-opacity="1" stop-color="rgb(13.092041%, 26.60675%, 67.602539%)" offset="0.6875"/><stop stop-opacity="1" stop-color="rgb(13.180542%, 26.664734%, 67.286682%)" offset="0.695312"/><stop stop-opacity="1" stop-color="rgb(13.269043%, 26.724243%, 66.972351%)" offset="0.703125"/><stop stop-opacity="1" stop-color="rgb(13.357544%, 26.782227%, 66.65802%)" offset="0.710938"/><stop stop-opacity="1" stop-color="rgb(13.447571%, 26.841736%, 66.342163%)" offset="0.71875"/><stop stop-opacity="1" stop-color="rgb(13.536072%, 26.899719%, 66.027832%)" offset="0.726562"/><stop stop-opacity="1" stop-color="rgb(13.624573%, 26.959229%, 65.711975%)" offset="0.734375"/><stop stop-opacity="1" stop-color="rgb(13.7146%, 27.017212%, 65.397644%)" offset="0.742188"/><stop stop-opacity="1" stop-color="rgb(13.803101%, 27.075195%, 65.081787%)" offset="0.75"/><stop stop-opacity="1" stop-color="rgb(13.891602%, 27.134705%, 64.767456%)" offset="0.757812"/><stop stop-opacity="1" stop-color="rgb(13.980103%, 27.192688%, 64.453125%)" offset="0.765625"/><stop stop-opacity="1" stop-color="rgb(14.070129%, 27.252197%, 64.137268%)" offset="0.773438"/><stop stop-opacity="1" stop-color="rgb(14.15863%, 27.310181%, 63.822937%)" offset="0.78125"/><stop stop-opacity="1" stop-color="rgb(14.247131%, 27.36969%, 63.50708%)" offset="0.789062"/><stop stop-opacity="1" stop-color="rgb(14.335632%, 27.427673%, 63.192749%)" offset="0.796875"/><stop stop-opacity="1" stop-color="rgb(14.425659%, 27.485657%, 62.878418%)" offset="0.804687"/><stop stop-opacity="1" stop-color="rgb(14.51416%, 27.545166%, 62.562561%)" offset="0.8125"/><stop stop-opacity="1" stop-color="rgb(14.602661%, 27.603149%, 62.24823%)" offset="0.820312"/><stop stop-opacity="1" stop-color="rgb(14.691162%, 27.662659%, 61.932373%)" offset="0.828125"/><stop stop-opacity="1" stop-color="rgb(14.781189%, 27.720642%, 61.618042%)" offset="0.835938"/><stop stop-opacity="1" stop-color="rgb(14.862061%, 27.775574%, 61.329651%)" offset="0.84375"/><stop stop-opacity="1" stop-color="rgb(14.898682%, 27.799988%, 61.199951%)" offset="0.875"/><stop stop-opacity="1" stop-color="rgb(14.898682%, 27.799988%, 61.199951%)" offset="1"/></linearGradient><clipPath id="8090c1b5b9"><path d="M 0 118 L 263 118 L 263 600 L 0 600 Z M 0 118 " clip-rule="nonzero"/></clipPath><clipPath id="e45d736910"><path d="M -235.890625 0.00390625 L 401.53125 468.796875 L 76.261719 911.066406 L -561.160156 442.269531 Z M -235.890625 0.00390625 " clip-rule="nonzero"/></clipPath><clipPath id="5f2377b590"><path d="M -235.890625 0.00390625 L 401.53125 468.796875 L 76.261719 911.066406 L -561.160156 442.269531 Z M -235.890625 0.00390625 " clip-rule="nonzero"/></clipPath></defs><g clip-path="url(#a6918d3338)"><g clip-path="url(#2e183741d1)"><g clip-path="url(#8c185ff864)"><g clip-path="url(#8a6542bd79)"><path fill="url(#860f5030c4)" d="M 371.742188 473.144531 L 734.722656 312.8125 L 555.464844 -93.015625 L 192.488281 67.3125 Z M 371.742188 473.144531 " fill-rule="nonzero"/></g></g></g></g><g clip-path="url(#8090c1b5b9)"><g clip-path="url(#e45d736910)"><g clip-path="url(#5f2377b590)"><path fill="#2baaff" d="M -52.773438 136.910156 C -54.105469 135.574219 -55.359375 134.125 -56.8125 132.898438 C -68.050781 123.367188 -81.191406 117.035156 -95.753906 118.5 C -108.011719 120.125 -119.816406 123.386719 -131.167969 128.289062 C -142.113281 133.261719 -152.738281 138.835938 -163.042969 145.023438 C -179.386719 153.839844 -194.890625 164.519531 -213.246094 168.996094 C -224.769531 172.34375 -236.5 174.65625 -248.433594 175.933594 C -261.988281 176.164062 -275.511719 175.613281 -289.003906 174.28125 C -302.191406 173.578125 -314.820312 174.203125 -325.203125 184.304688 C -327.207031 186.253906 -331.476562 186.035156 -334.746094 186.484375 C -338.359375 186.988281 -342.125 186.6875 -345.671875 187.472656 C -357.453125 190.121094 -366.636719 197.546875 -375.8125 204.796875 C -388.464844 214.816406 -401.339844 224.84375 -408.042969 240.167969 C -412.632812 250.242188 -416.527344 260.578125 -419.722656 271.175781 C -421.105469 275.652344 -422.0625 280.214844 -422.59375 284.871094 C -423.125 289.523438 -423.226562 294.183594 -422.890625 298.855469 C -422.554688 303.527344 -421.789062 308.128906 -420.597656 312.65625 C -419.40625 317.1875 -417.808594 321.566406 -415.800781 325.796875 C -401.640625 355.027344 -380.210938 378.464844 -354.5625 398.261719 C -340.445312 408.449219 -327.457031 419.914062 -315.59375 432.65625 C -312.824219 435.6875 -310.195312 438.84375 -307.714844 442.117188 C -305.234375 445.394531 -302.90625 448.773438 -300.734375 452.261719 C -298.5625 455.75 -296.558594 459.332031 -294.714844 463.003906 C -292.871094 466.675781 -291.199219 470.425781 -289.703125 474.253906 C -288.203125 478.078125 -286.882812 481.964844 -285.742188 485.910156 C -284.597656 489.859375 -283.640625 493.851562 -282.863281 497.886719 C -282.085938 501.921875 -281.5 505.984375 -281.09375 510.074219 C -280.691406 514.160156 -280.476562 518.261719 -280.449219 522.371094 C -280.234375 540.355469 -279.667969 558.320312 -278.980469 576.300781 C -278.089844 598.210938 -274.34375 619.617188 -267.742188 640.527344 C -267.101562 642.773438 -266.3125 644.96875 -265.367188 647.109375 C -264.425781 649.25 -263.34375 651.3125 -262.117188 653.304688 C -260.894531 655.292969 -259.539062 657.191406 -258.054688 658.996094 C -256.570312 660.800781 -254.96875 662.496094 -253.25 664.082031 C -251.53125 665.667969 -249.714844 667.128906 -247.796875 668.464844 C -245.878906 669.800781 -243.878906 671 -241.792969 672.0625 C -239.710938 673.121094 -237.566406 674.035156 -235.359375 674.804688 C -233.152344 675.570312 -230.902344 676.183594 -228.609375 676.640625 C -205.917969 682.035156 -182.761719 682.761719 -160.574219 673.222656 C -153.121094 669.898438 -145.867188 666.171875 -138.824219 662.050781 C -130.441406 657.605469 -122.371094 652.65625 -114.605469 647.203125 C -98.476562 635.171875 -82.816406 622.683594 -64.914062 613.039062 C -60.011719 610.328125 -54.929688 608.007812 -49.671875 606.074219 C -44.414062 604.140625 -39.042969 602.617188 -33.554688 601.503906 C -28.0625 600.390625 -22.519531 599.703125 -16.925781 599.4375 C -11.332031 599.167969 -5.75 599.332031 -0.179688 599.917969 C 3.355469 599.925781 6.726562 600.679688 9.929688 602.171875 C 17.394531 606.832031 25.835938 607.945312 33.972656 610.347656 C 43.617188 613.445312 52.929688 617.339844 61.90625 622.03125 C 70.878906 626.722656 79.390625 632.148438 87.4375 638.300781 C 102.453125 649.113281 118.160156 658.804688 134.558594 667.375 C 150.957031 675.949219 167.878906 683.316406 185.328125 689.476562 C 190.386719 691.367188 195.589844 692.6875 200.9375 693.445312 C 206.285156 694.199219 211.648438 694.367188 217.035156 693.949219 C 219.089844 693.875 221.128906 693.625 223.144531 693.203125 C 225.15625 692.777344 227.125 692.191406 229.039062 691.433594 C 230.953125 690.679688 232.792969 689.765625 234.554688 688.699219 C 236.3125 687.632812 237.972656 686.425781 239.527344 685.074219 C 243.820312 681.058594 247.53125 676.5625 250.660156 671.582031 C 253.789062 666.605469 256.230469 661.3125 257.992188 655.703125 C 264.238281 636.890625 263.914062 617.640625 260.957031 598.542969 C 258.640625 583.023438 254.734375 567.914062 249.238281 553.214844 C 243.746094 538.519531 236.78125 524.550781 228.351562 511.320312 C 221.667969 500.574219 213.976562 490.605469 205.277344 481.417969 C 196.578125 472.226562 187.046875 464.003906 176.683594 456.742188 C 153.644531 441.195312 131.476562 424.488281 110.183594 406.621094 C 92.839844 390.925781 76.558594 374.195312 61.34375 356.425781 C 52.160156 345.597656 43.605469 334.289062 35.691406 322.5 C 32.8125 317.964844 30.316406 313.234375 28.199219 308.300781 C 26.804688 305.472656 26.011719 302.308594 24.386719 299.617188 C 11.996094 279.082031 6.070312 256.242188 -0.0117188 233.359375 C -3.390625 219.25 -7.941406 205.53125 -13.660156 192.195312 C -23.179688 171.492188 -34.644531 151.730469 -52.773438 136.910156 Z M -52.773438 136.910156 " fill-opacity="1" fill-rule="nonzero"/></g></g></g></svg>