<svg xmlns="http://www.w3.org/2000/svg" xmlns:xlink="http://www.w3.org/1999/xlink" width="800" zoomAndPan="magnify" viewBox="0 0 600 599.999999" height="800" preserveAspectRatio="xMidYMid meet" version="1.0"><defs><clipPath id="0e11fe9ea1"><path d="M 371 204 L 600 204 L 600 498 L 371 498 Z M 371 204 " clip-rule="nonzero"/></clipPath><clipPath id="b4d8669866"><path d="M 292.25 296.941406 L 661.046875 142.707031 L 787.789062 445.773438 L 418.992188 600.007812 Z M 292.25 296.941406 " clip-rule="nonzero"/></clipPath><clipPath id="65d132f904"><path d="M 292.25 296.941406 L 661.046875 142.707031 L 787.789062 445.773438 L 418.992188 600.007812 Z M 292.25 296.941406 " clip-rule="nonzero"/></clipPath><clipPath id="64984da821"><path d="M 372.59375 469.941406 C 380.078125 506.324219 600.742188 524 664.035156 412.914062 C 727.328125 301.828125 680.058594 191.882812 577.578125 206.179688 C 475.09375 220.476562 527.792969 310.539062 485.226562 360.769531 C 442.660156 411 360.566406 411.402344 372.59375 469.941406 Z M 372.59375 469.941406 " clip-rule="nonzero"/></clipPath><linearGradient x1="-16.024918" gradientTransform="matrix(1.828041, -0.764503, 0.764441, 1.827892, 307.35587, 314.4633)" y1="64.919998" x2="160.123972" gradientUnits="userSpaceOnUse" y2="64.919998" id="5f9ab8fa85"><stop stop-opacity="1" stop-color="rgb(5.499268%, 21.598816%, 94.499207%)" offset="0"/><stop stop-opacity="1" stop-color="rgb(5.499268%, 21.598816%, 94.499207%)" offset="0.0625"/><stop stop-opacity="1" stop-color="rgb(5.511475%, 21.606445%, 94.454956%)" offset="0.09375"/><stop stop-opacity="1" stop-color="rgb(5.558777%, 21.638489%, 94.287109%)" offset="0.101563"/><stop stop-opacity="1" stop-color="rgb(5.628967%, 21.684265%, 94.039917%)" offset="0.109375"/><stop stop-opacity="1" stop-color="rgb(5.699158%, 21.730042%, 93.791199%)" offset="0.117188"/><stop stop-opacity="1" stop-color="rgb(5.769348%, 21.777344%, 93.544006%)" offset="0.125"/><stop stop-opacity="1" stop-color="rgb(5.838013%, 21.82312%, 93.295288%)" offset="0.132812"/><stop stop-opacity="1" stop-color="rgb(5.908203%, 21.868896%, 93.048096%)" offset="0.140625"/><stop stop-opacity="1" stop-color="rgb(5.978394%, 21.914673%, 92.800903%)" offset="0.148438"/><stop stop-opacity="1" stop-color="rgb(6.048584%, 21.961975%, 92.552185%)" offset="0.15625"/><stop stop-opacity="1" stop-color="rgb(6.118774%, 22.007751%, 92.304993%)" offset="0.164063"/><stop stop-opacity="1" stop-color="rgb(6.188965%, 22.053528%, 92.056274%)" offset="0.171875"/><stop stop-opacity="1" stop-color="rgb(6.259155%, 22.099304%, 91.809082%)" offset="0.179688"/><stop stop-opacity="1" stop-color="rgb(6.32782%, 22.146606%, 91.56189%)" offset="0.1875"/><stop stop-opacity="1" stop-color="rgb(6.39801%, 22.192383%, 91.313171%)" offset="0.195313"/><stop stop-opacity="1" stop-color="rgb(6.468201%, 22.238159%, 91.065979%)" offset="0.203125"/><stop stop-opacity="1" stop-color="rgb(6.538391%, 22.283936%, 90.817261%)" offset="0.210938"/><stop stop-opacity="1" stop-color="rgb(6.608582%, 22.331238%, 90.570068%)" offset="0.21875"/><stop stop-opacity="1" stop-color="rgb(6.678772%, 22.377014%, 90.322876%)" offset="0.226563"/><stop stop-opacity="1" stop-color="rgb(6.747437%, 22.422791%, 90.074158%)" offset="0.234375"/><stop stop-opacity="1" stop-color="rgb(6.817627%, 22.468567%, 89.826965%)" offset="0.242188"/><stop stop-opacity="1" stop-color="rgb(6.887817%, 22.514343%, 89.579773%)" offset="0.25"/><stop stop-opacity="1" stop-color="rgb(6.958008%, 22.561646%, 89.331055%)" offset="0.257812"/><stop stop-opacity="1" stop-color="rgb(7.028198%, 22.607422%, 89.083862%)" offset="0.265625"/><stop stop-opacity="1" stop-color="rgb(7.098389%, 22.653198%, 88.835144%)" offset="0.273438"/><stop stop-opacity="1" stop-color="rgb(7.167053%, 22.698975%, 88.587952%)" offset="0.28125"/><stop stop-opacity="1" stop-color="rgb(7.237244%, 22.746277%, 88.340759%)" offset="0.289063"/><stop stop-opacity="1" stop-color="rgb(7.307434%, 22.792053%, 88.092041%)" offset="0.296875"/><stop stop-opacity="1" stop-color="rgb(7.377625%, 22.83783%, 87.844849%)" offset="0.304688"/><stop stop-opacity="1" stop-color="rgb(7.447815%, 22.883606%, 87.59613%)" offset="0.3125"/><stop stop-opacity="1" stop-color="rgb(7.518005%, 22.930908%, 87.348938%)" offset="0.320313"/><stop stop-opacity="1" stop-color="rgb(7.58667%, 22.976685%, 87.101746%)" offset="0.328125"/><stop stop-opacity="1" stop-color="rgb(7.65686%, 23.022461%, 86.853027%)" offset="0.335938"/><stop stop-opacity="1" stop-color="rgb(7.727051%, 23.068237%, 86.605835%)" offset="0.34375"/><stop stop-opacity="1" stop-color="rgb(7.797241%, 23.11554%, 86.357117%)" offset="0.351562"/><stop stop-opacity="1" stop-color="rgb(7.867432%, 23.161316%, 86.109924%)" offset="0.359375"/><stop stop-opacity="1" stop-color="rgb(7.937622%, 23.207092%, 85.862732%)" offset="0.367188"/><stop stop-opacity="1" stop-color="rgb(8.007812%, 23.252869%, 85.614014%)" offset="0.375"/><stop stop-opacity="1" stop-color="rgb(8.076477%, 23.298645%, 85.366821%)" offset="0.382812"/><stop stop-opacity="1" stop-color="rgb(8.146667%, 23.345947%, 85.119629%)" offset="0.390625"/><stop stop-opacity="1" stop-color="rgb(8.216858%, 23.391724%, 84.870911%)" offset="0.398438"/><stop stop-opacity="1" stop-color="rgb(8.287048%, 23.4375%, 84.623718%)" offset="0.40625"/><stop stop-opacity="1" stop-color="rgb(8.357239%, 23.483276%, 84.375%)" offset="0.414063"/><stop stop-opacity="1" stop-color="rgb(8.427429%, 23.530579%, 84.127808%)" offset="0.421875"/><stop stop-opacity="1" stop-color="rgb(8.496094%, 23.576355%, 83.880615%)" offset="0.429688"/><stop stop-opacity="1" stop-color="rgb(8.566284%, 23.622131%, 83.631897%)" offset="0.4375"/><stop stop-opacity="1" stop-color="rgb(8.636475%, 23.667908%, 83.384705%)" offset="0.445313"/><stop stop-opacity="1" stop-color="rgb(8.706665%, 23.71521%, 83.135986%)" offset="0.453125"/><stop stop-opacity="1" stop-color="rgb(8.776855%, 23.760986%, 82.888794%)" offset="0.460938"/><stop stop-opacity="1" stop-color="rgb(8.847046%, 23.806763%, 82.641602%)" offset="0.46875"/><stop stop-opacity="1" stop-color="rgb(8.91571%, 23.852539%, 82.392883%)" offset="0.476562"/><stop stop-opacity="1" stop-color="rgb(8.985901%, 23.899841%, 82.145691%)" offset="0.484375"/><stop stop-opacity="1" stop-color="rgb(9.056091%, 23.945618%, 81.896973%)" offset="0.492188"/><stop stop-opacity="1" stop-color="rgb(9.126282%, 23.991394%, 81.64978%)" offset="0.5"/><stop stop-opacity="1" stop-color="rgb(9.196472%, 24.03717%, 81.402588%)" offset="0.507813"/><stop stop-opacity="1" stop-color="rgb(9.266663%, 24.082947%, 81.15387%)" offset="0.515625"/><stop stop-opacity="1" stop-color="rgb(9.335327%, 24.130249%, 80.906677%)" offset="0.523438"/><stop stop-opacity="1" stop-color="rgb(9.405518%, 24.176025%, 80.657959%)" offset="0.53125"/><stop stop-opacity="1" stop-color="rgb(9.475708%, 24.221802%, 80.410767%)" offset="0.539062"/><stop stop-opacity="1" stop-color="rgb(9.545898%, 24.267578%, 80.163574%)" offset="0.546875"/><stop stop-opacity="1" stop-color="rgb(9.616089%, 24.31488%, 79.914856%)" offset="0.554688"/><stop stop-opacity="1" stop-color="rgb(9.686279%, 24.360657%, 79.667664%)" offset="0.5625"/><stop stop-opacity="1" stop-color="rgb(9.754944%, 24.406433%, 79.420471%)" offset="0.570313"/><stop stop-opacity="1" stop-color="rgb(9.825134%, 24.452209%, 79.171753%)" offset="0.578125"/><stop stop-opacity="1" stop-color="rgb(9.895325%, 24.499512%, 78.924561%)" offset="0.585938"/><stop stop-opacity="1" stop-color="rgb(9.965515%, 24.545288%, 78.675842%)" offset="0.59375"/><stop stop-opacity="1" stop-color="rgb(10.035706%, 24.591064%, 78.42865%)" offset="0.601562"/><stop stop-opacity="1" stop-color="rgb(10.105896%, 24.636841%, 78.181458%)" offset="0.609375"/><stop stop-opacity="1" stop-color="rgb(10.176086%, 24.684143%, 77.932739%)" offset="0.617187"/><stop stop-opacity="1" stop-color="rgb(10.244751%, 24.729919%, 77.685547%)" offset="0.625"/><stop stop-opacity="1" stop-color="rgb(10.314941%, 24.775696%, 77.436829%)" offset="0.632812"/><stop stop-opacity="1" stop-color="rgb(10.385132%, 24.821472%, 77.189636%)" offset="0.640625"/><stop stop-opacity="1" stop-color="rgb(10.455322%, 24.867249%, 76.942444%)" offset="0.648438"/><stop stop-opacity="1" stop-color="rgb(10.525513%, 24.914551%, 76.693726%)" offset="0.65625"/><stop stop-opacity="1" stop-color="rgb(10.595703%, 24.960327%, 76.446533%)" offset="0.664062"/><stop stop-opacity="1" stop-color="rgb(10.664368%, 25.006104%, 76.197815%)" offset="0.671875"/><stop stop-opacity="1" stop-color="rgb(10.734558%, 25.05188%, 75.950623%)" offset="0.679688"/><stop stop-opacity="1" stop-color="rgb(10.804749%, 25.099182%, 75.70343%)" offset="0.6875"/><stop stop-opacity="1" stop-color="rgb(10.874939%, 25.144958%, 75.454712%)" offset="0.695312"/><stop stop-opacity="1" stop-color="rgb(10.945129%, 25.190735%, 75.20752%)" offset="0.703125"/><stop stop-opacity="1" stop-color="rgb(11.01532%, 25.236511%, 74.960327%)" offset="0.710938"/><stop stop-opacity="1" stop-color="rgb(11.083984%, 25.283813%, 74.711609%)" offset="0.71875"/><stop stop-opacity="1" stop-color="rgb(11.154175%, 25.32959%, 74.464417%)" offset="0.726563"/><stop stop-opacity="1" stop-color="rgb(11.224365%, 25.375366%, 74.215698%)" offset="0.734375"/><stop stop-opacity="1" stop-color="rgb(11.294556%, 25.421143%, 73.968506%)" offset="0.742188"/><stop stop-opacity="1" stop-color="rgb(11.364746%, 25.468445%, 73.721313%)" offset="0.75"/><stop stop-opacity="1" stop-color="rgb(11.434937%, 25.514221%, 73.472595%)" offset="0.757812"/><stop stop-opacity="1" stop-color="rgb(11.503601%, 25.559998%, 73.225403%)" offset="0.765625"/><stop stop-opacity="1" stop-color="rgb(11.573792%, 25.605774%, 72.976685%)" offset="0.773437"/><stop stop-opacity="1" stop-color="rgb(11.643982%, 25.65155%, 72.729492%)" offset="0.78125"/><stop stop-opacity="1" stop-color="rgb(11.714172%, 25.698853%, 72.4823%)" offset="0.789062"/><stop stop-opacity="1" stop-color="rgb(11.784363%, 25.744629%, 72.233582%)" offset="0.796875"/><stop stop-opacity="1" stop-color="rgb(11.854553%, 25.790405%, 71.986389%)" offset="0.804688"/><stop stop-opacity="1" stop-color="rgb(11.924744%, 25.836182%, 71.737671%)" offset="0.8125"/><stop stop-opacity="1" stop-color="rgb(11.993408%, 25.883484%, 71.490479%)" offset="0.820312"/><stop stop-opacity="1" stop-color="rgb(12.063599%, 25.92926%, 71.243286%)" offset="0.828125"/><stop stop-opacity="1" stop-color="rgb(12.133789%, 25.975037%, 70.994568%)" offset="0.835938"/><stop stop-opacity="1" stop-color="rgb(12.203979%, 26.020813%, 70.747375%)" offset="0.84375"/><stop stop-opacity="1" stop-color="rgb(12.27417%, 26.068115%, 70.500183%)" offset="0.851562"/><stop stop-opacity="1" stop-color="rgb(12.34436%, 26.113892%, 70.251465%)" offset="0.859375"/><stop stop-opacity="1" stop-color="rgb(12.413025%, 26.159668%, 70.004272%)" offset="0.867188"/><stop stop-opacity="1" stop-color="rgb(12.483215%, 26.205444%, 69.755554%)" offset="0.875"/><stop stop-opacity="1" stop-color="rgb(12.553406%, 26.251221%, 69.508362%)" offset="0.882813"/><stop stop-opacity="1" stop-color="rgb(12.623596%, 26.298523%, 69.261169%)" offset="0.890625"/><stop stop-opacity="1" stop-color="rgb(12.693787%, 26.344299%, 69.012451%)" offset="0.898438"/><stop stop-opacity="1" stop-color="rgb(12.763977%, 26.390076%, 68.765259%)" offset="0.90625"/><stop stop-opacity="1" stop-color="rgb(12.832642%, 26.435852%, 68.516541%)" offset="0.914063"/><stop stop-opacity="1" stop-color="rgb(12.902832%, 26.483154%, 68.269348%)" offset="0.921875"/><stop stop-opacity="1" stop-color="rgb(12.973022%, 26.528931%, 68.022156%)" offset="0.929688"/><stop stop-opacity="1" stop-color="rgb(13.043213%, 26.574707%, 67.773438%)" offset="0.9375"/><stop stop-opacity="1" stop-color="rgb(13.113403%, 26.620483%, 67.526245%)" offset="0.945312"/><stop stop-opacity="1" stop-color="rgb(13.183594%, 26.667786%, 67.277527%)" offset="0.953125"/><stop stop-opacity="1" stop-color="rgb(13.252258%, 26.713562%, 67.030334%)" offset="0.960938"/><stop stop-opacity="1" stop-color="rgb(13.322449%, 26.759338%, 66.783142%)" offset="0.96875"/><stop stop-opacity="1" stop-color="rgb(13.392639%, 26.805115%, 66.534424%)" offset="0.976562"/><stop stop-opacity="1" stop-color="rgb(13.46283%, 26.852417%, 66.287231%)" offset="0.984375"/><stop stop-opacity="1" stop-color="rgb(13.53302%, 26.898193%, 66.038513%)" offset="0.992188"/><stop stop-opacity="1" stop-color="rgb(13.60321%, 26.94397%, 65.791321%)" offset="1"/></linearGradient><clipPath id="2ebc50fd9f"><path d="M 0 0 L 162 0 L 162 449 L 0 449 Z M 0 0 " clip-rule="nonzero"/></clipPath><clipPath id="bc209fca6a"><path d="M -554.109375 -170.1875 L 217.613281 4.515625 L 96.394531 539.964844 L -675.324219 365.261719 Z M -554.109375 -170.1875 " clip-rule="nonzero"/></clipPath><clipPath id="4abf15a40a"><path d="M -554.109375 -170.1875 L 217.613281 4.515625 L 96.394531 539.964844 L -675.324219 365.261719 Z M -554.109375 -170.1875 " clip-rule="nonzero"/></clipPath></defs><g clip-path="url(#0e11fe9ea1)"><g clip-path="url(#b4d8669866)"><g clip-path="url(#65d132f904)"><g clip-path="url(#64984da821)"><path fill="url(#5f9ab8fa85)" d="M 242.351562 241.324219 L 396.210938 609.226562 L 718.21875 474.558594 L 564.355469 106.65625 Z M 242.351562 241.324219 " fill-rule="nonzero"/></g></g></g></g><g clip-path="url(#2ebc50fd9f)"><g clip-path="url(#bc209fca6a)"><g clip-path="url(#4abf15a40a)"><path fill="#2baaff" d="M -331.515625 -117.953125 C -333.273438 -118.648438 -335 -119.472656 -336.820312 -120.015625 C -350.9375 -124.253906 -365.511719 -124.804688 -378.273438 -117.636719 C -388.859375 -111.246094 -398.371094 -103.53125 -406.816406 -94.496094 C -414.859375 -85.566406 -422.367188 -76.203125 -429.339844 -66.414062 C -440.785156 -51.792969 -450.726562 -35.804688 -465.757812 -24.359375 C -474.980469 -16.679688 -484.808594 -9.871094 -495.234375 -3.925781 C -507.566406 1.707031 -520.183594 6.609375 -533.078125 10.789062 C -545.449219 15.414062 -556.773438 21.042969 -562.246094 34.453125 C -563.304688 37.039062 -567.304688 38.546875 -570.121094 40.265625 C -573.234375 42.175781 -576.804688 43.402344 -579.738281 45.542969 C -589.480469 52.683594 -594.925781 63.164062 -600.433594 73.476562 C -608.023438 87.722656 -615.816406 102.058594 -615.824219 118.785156 C -616.003906 129.855469 -615.4375 140.886719 -614.128906 151.878906 C -613.605469 156.53125 -612.65625 161.097656 -611.285156 165.574219 C -609.910156 170.054688 -608.136719 174.367188 -605.960938 178.511719 C -603.785156 182.660156 -601.246094 186.570312 -598.339844 190.246094 C -595.4375 193.921875 -592.21875 197.296875 -588.6875 200.371094 C -564.015625 221.496094 -535 234.40625 -503.574219 242.289062 C -486.5625 245.980469 -470.074219 251.292969 -454.105469 258.226562 C -450.351562 259.898438 -446.683594 261.738281 -443.097656 263.75 C -439.515625 265.757812 -436.027344 267.925781 -432.644531 270.253906 C -429.257812 272.582031 -425.988281 275.0625 -422.828125 277.691406 C -419.671875 280.320312 -416.640625 283.089844 -413.734375 285.996094 C -410.832031 288.902344 -408.066406 291.9375 -405.441406 295.097656 C -402.816406 298.257812 -400.339844 301.53125 -398.015625 304.921875 C -395.691406 308.308594 -393.523438 311.796875 -391.519531 315.382812 C -389.515625 318.96875 -387.675781 322.640625 -386.007812 326.394531 C -378.617188 342.792969 -370.914062 359.03125 -363.089844 375.234375 C -353.511719 394.960938 -341.515625 413.082031 -327.101562 429.605469 C -325.617188 431.410156 -324.011719 433.105469 -322.292969 434.6875 C -320.574219 436.273438 -318.757812 437.734375 -316.835938 439.066406 C -314.917969 440.402344 -312.917969 441.597656 -310.835938 442.660156 C -308.75 443.71875 -306.605469 444.632812 -304.398438 445.398438 C -302.1875 446.164062 -299.9375 446.777344 -297.644531 447.234375 C -295.351562 447.691406 -293.039062 447.988281 -290.707031 448.128906 C -288.375 448.269531 -286.042969 448.25 -283.710938 448.070312 C -281.382812 447.886719 -279.074219 447.550781 -276.789062 447.054688 C -253.835938 442.917969 -232.320312 434.324219 -215.804688 416.707031 C -210.300781 410.675781 -205.144531 404.363281 -200.335938 397.765625 C -194.433594 390.339844 -189.011719 382.578125 -184.078125 374.476562 C -174.105469 356.992188 -164.75 339.285156 -152.199219 323.285156 C -148.789062 318.839844 -145.0625 314.679688 -141.015625 310.804688 C -136.972656 306.929688 -132.65625 303.382812 -128.070312 300.167969 C -123.484375 296.953125 -118.679688 294.105469 -113.660156 291.621094 C -108.636719 289.140625 -103.457031 287.054688 -98.117188 285.367188 C -94.875 283.960938 -91.484375 283.300781 -87.953125 283.390625 C -79.246094 284.675781 -71.0625 282.320312 -62.644531 281.265625 C -52.566406 280.246094 -42.476562 280.089844 -32.371094 280.800781 C -22.265625 281.511719 -12.296875 283.078125 -2.464844 285.5 C 15.625 289.402344 33.898438 292.003906 52.355469 293.300781 C 70.8125 294.597656 89.269531 294.582031 107.726562 293.25 C 113.117188 292.957031 118.414062 292.089844 123.617188 290.640625 C 128.820312 289.195312 133.804688 287.203125 138.574219 284.667969 C 140.429688 283.773438 142.195312 282.730469 143.875 281.539062 C 145.550781 280.34375 147.117188 279.019531 148.570312 277.558594 C 150.023438 276.101562 151.34375 274.53125 152.53125 272.847656 C 153.71875 271.164062 154.753906 269.394531 155.640625 267.535156 C 157.96875 262.136719 159.570312 256.53125 160.445312 250.71875 C 161.324219 244.90625 161.445312 239.074219 160.816406 233.230469 C 159.015625 213.492188 151.019531 195.976562 140.667969 179.660156 C 132.339844 166.359375 122.714844 154.074219 111.800781 142.800781 C 100.886719 131.527344 88.917969 121.511719 75.898438 112.753906 C 65.476562 105.578125 54.4375 99.519531 42.789062 94.578125 C 31.140625 89.636719 19.117188 85.910156 6.714844 83.402344 C -20.621094 78.367188 -47.621094 71.917969 -74.285156 64.0625 C -96.457031 56.613281 -118.070312 47.792969 -139.121094 37.59375 C -151.871094 31.34375 -164.234375 24.398438 -176.203125 16.757812 C -180.652344 13.753906 -184.835938 10.417969 -188.75 6.742188 C -191.160156 4.707031 -193.152344 2.121094 -195.714844 0.308594 C -215.289062 -13.554688 -229.851562 -32.121094 -244.582031 -50.660156 C -253.324219 -62.238281 -262.980469 -72.996094 -273.554688 -82.925781 C -290.5625 -98.097656 -308.972656 -111.621094 -331.515625 -117.953125 Z M -331.515625 -117.953125 " fill-opacity="1" fill-rule="nonzero"/></g></g></g></svg>