<svg xmlns="http://www.w3.org/2000/svg" xmlns:xlink="http://www.w3.org/1999/xlink" width="800" zoomAndPan="magnify" viewBox="0 0 600 599.999999" height="800" preserveAspectRatio="xMidYMid meet" version="1.0"><defs><clipPath id="3469998f95"><path d="M 387 321 L 600 321 L 600 600 L 387 600 Z M 387 321 " clip-rule="nonzero"/></clipPath><clipPath id="8de7a0f0eb"><path d="M 972.214844 358.492188 L 864.609375 1129.519531 L 329.792969 1054.878906 L 437.398438 283.851562 Z M 972.214844 358.492188 " clip-rule="nonzero"/></clipPath><clipPath id="6447c2660f"><path d="M 972.214844 358.492188 L 864.609375 1129.519531 L 329.792969 1054.878906 L 437.398438 283.851562 Z M 972.214844 358.492188 " clip-rule="nonzero"/></clipPath><clipPath id="23b2c13b60"><path d="M 0 0 L 243 0 L 243 244 L 0 244 Z M 0 0 " clip-rule="nonzero"/></clipPath><clipPath id="e575cb21cb"><path d="M -402.4375 146.957031 L -140.117188 -599.542969 L 377.832031 -417.535156 L 115.515625 328.964844 Z M -402.4375 146.957031 " clip-rule="nonzero"/></clipPath><clipPath id="24de81f8b3"><path d="M -402.4375 146.957031 L -140.117188 -599.542969 L 377.832031 -417.535156 L 115.515625 328.964844 Z M -402.4375 146.957031 " clip-rule="nonzero"/></clipPath></defs><rect x="-60" width="720" fill="#ffffff" y="-60" height="719.999999" fill-opacity="1"/><rect x="-60" width="720" fill="#ffffff" y="-60" height="719.999999" fill-opacity="1"/><rect x="-60" width="720" fill="#fdfcfc" y="-60" height="719.999999" fill-opacity="1"/><g clip-path="url(#3469998f95)"><g clip-path="url(#8de7a0f0eb)"><g clip-path="url(#6447c2660f)"><path fill="#26479c" d="M 939.371094 581.039062 C 939.902344 579.257812 940.570312 577.496094 940.953125 575.667969 C 943.945312 561.480469 943.28125 547.140625 935.203125 535.222656 C 928.066406 525.375 919.722656 516.683594 910.171875 509.152344 C 900.75 502.003906 890.957031 495.417969 880.785156 489.386719 C 865.511719 479.371094 849.023438 470.945312 836.566406 457.152344 C 828.277344 448.742188 820.792969 439.671875 814.105469 429.941406 C 807.570312 418.316406 801.722656 406.351562 796.566406 394.050781 C 791.007812 382.308594 784.558594 371.667969 770.964844 367.410156 C 768.34375 366.585938 766.535156 362.789062 764.617188 360.167969 C 762.492188 357.277344 760.992188 353.875 758.652344 351.175781 C 750.851562 342.214844 740.128906 337.738281 729.566406 333.191406 C 714.980469 326.925781 700.285156 320.472656 683.890625 321.839844 C 673.023438 322.582031 662.261719 324.046875 651.59375 326.238281 C 647.074219 327.132812 642.675781 328.441406 638.402344 330.15625 C 634.125 331.871094 630.046875 333.96875 626.160156 336.445312 C 622.273438 338.921875 618.652344 341.734375 615.289062 344.882812 C 611.925781 348.035156 608.882812 351.46875 606.160156 355.183594 C 587.488281 381.117188 577.226562 410.628906 572.089844 442.089844 C 569.878906 459.074219 566.03125 475.679688 560.550781 491.90625 C 559.222656 495.722656 557.71875 499.472656 556.046875 503.152344 C 554.371094 506.832031 552.535156 510.429688 550.53125 513.941406 C 548.527344 517.449219 546.367188 520.863281 544.050781 524.175781 C 541.734375 527.488281 539.269531 530.6875 536.660156 533.777344 C 534.050781 536.863281 531.304688 539.824219 528.425781 542.660156 C 525.542969 545.496094 522.539062 548.191406 519.410156 550.75 C 516.28125 553.3125 513.039062 555.722656 509.691406 557.984375 C 506.339844 560.246094 502.894531 562.347656 499.351562 564.296875 C 483.886719 572.894531 468.605469 581.789062 453.371094 590.796875 C 434.824219 601.816406 418.050781 615.070312 403.042969 630.566406 C 401.398438 632.175781 399.871094 633.886719 398.460938 635.703125 C 397.046875 637.515625 395.769531 639.421875 394.617188 641.414062 C 393.46875 643.402344 392.460938 645.464844 391.589844 647.59375 C 390.722656 649.726562 390.007812 651.902344 389.4375 654.132812 C 388.871094 656.359375 388.457031 658.617188 388.195312 660.902344 C 387.9375 663.1875 387.835938 665.480469 387.890625 667.777344 C 387.945312 670.078125 388.15625 672.363281 388.527344 674.632812 C 388.894531 676.902344 389.417969 679.136719 390.089844 681.335938 C 396.039062 703.5 406.238281 723.882812 424.863281 738.621094 C 431.226562 743.519531 437.839844 748.054688 444.703125 752.222656 C 452.46875 757.398438 460.527344 762.070312 468.875 766.238281 C 486.832031 774.574219 504.957031 782.285156 521.675781 793.269531 C 526.316406 796.242188 530.699219 799.554688 534.832031 803.199219 C 538.960938 806.847656 542.792969 810.785156 546.324219 815.015625 C 549.851562 819.246094 553.042969 823.722656 555.886719 828.441406 C 558.734375 833.160156 561.203125 838.066406 563.300781 843.160156 C 564.945312 846.226562 565.871094 849.492188 566.078125 852.964844 C 565.535156 861.605469 568.519531 869.433594 570.246094 877.601562 C 572.078125 887.398438 573.058594 897.277344 573.195312 907.242188 C 573.332031 917.207031 572.617188 927.109375 571.054688 936.953125 C 568.722656 955.007812 567.679688 973.136719 567.929688 991.339844 C 568.179688 1009.542969 569.71875 1027.636719 572.546875 1045.621094 C 573.277344 1050.886719 574.566406 1056.007812 576.410156 1060.988281 C 578.257812 1065.96875 580.621094 1070.691406 583.5 1075.15625 C 584.53125 1076.902344 585.699219 1078.550781 587.003906 1080.09375 C 588.3125 1081.640625 589.742188 1083.066406 591.292969 1084.371094 C 592.839844 1085.675781 594.488281 1086.839844 596.238281 1087.867188 C 597.984375 1088.890625 599.804688 1089.761719 601.699219 1090.476562 C 607.183594 1092.3125 612.808594 1093.417969 618.578125 1093.800781 C 624.351562 1094.179688 630.074219 1093.820312 635.75 1092.71875 C 654.949219 1089.320312 671.457031 1080.035156 686.597656 1068.542969 C 698.945312 1059.277344 710.195312 1048.828125 720.34375 1037.199219 C 730.496094 1025.566406 739.324219 1013.007812 746.832031 999.515625 C 753.007812 988.707031 758.035156 977.386719 761.917969 965.558594 C 765.804688 953.730469 768.464844 941.632812 769.898438 929.265625 C 772.582031 902.050781 776.671875 875.046875 782.179688 848.257812 C 787.648438 825.902344 794.515625 803.988281 802.773438 782.507812 C 807.847656 769.488281 813.636719 756.796875 820.136719 744.429688 C 822.714844 739.820312 825.640625 735.441406 828.921875 731.304688 C 830.71875 728.769531 833.085938 726.605469 834.652344 723.941406 C 846.628906 703.609375 863.621094 687.796875 880.578125 671.828125 C 891.207031 662.300781 900.953125 651.945312 909.816406 640.753906 C 923.28125 622.828125 935.023438 603.664062 939.371094 581.039062 Z M 939.371094 581.039062 " fill-opacity="1" fill-rule="nonzero"/></g></g></g><g clip-path="url(#23b2c13b60)"><g clip-path="url(#e575cb21cb)"><g clip-path="url(#24de81f8b3)"><path fill="#2baaff" d="M -324.941406 -68.148438 C -325.832031 -66.484375 -326.851562 -64.863281 -327.601562 -63.113281 C -333.433594 -49.582031 -335.660156 -35.164062 -330.007812 -21.664062 C -324.875 -10.414062 -318.308594 -0.078125 -310.304688 9.351562 C -302.355469 18.367188 -293.917969 26.898438 -284.996094 34.953125 C -271.792969 48.007812 -257.054688 59.722656 -247.410156 75.96875 C -240.84375 86.015625 -235.210938 96.558594 -230.503906 107.601562 C -226.328125 120.5 -222.910156 133.59375 -220.242188 146.886719 C -217.066406 159.707031 -212.78125 171.601562 -200.089844 178.582031 C -197.640625 179.929688 -196.605469 184.078125 -195.21875 187.074219 C -193.683594 190.382812 -192.875 194.074219 -191.085938 197.234375 C -185.113281 207.730469 -175.328125 214.347656 -165.71875 221.003906 C -152.441406 230.183594 -139.09375 239.570312 -122.480469 241.507812 C -111.503906 242.957031 -100.484375 243.664062 -89.414062 243.628906 C -84.730469 243.644531 -80.082031 243.226562 -75.476562 242.378906 C -70.871094 241.527344 -66.382812 240.261719 -62.015625 238.578125 C -57.644531 236.894531 -53.464844 234.820312 -49.484375 232.359375 C -45.5 229.894531 -41.777344 227.085938 -38.316406 223.933594 C -14.492188 201.855469 1.671875 174.519531 13.117188 144.210938 C 18.738281 127.734375 25.914062 111.964844 34.636719 96.898438 C 36.730469 93.363281 38.980469 89.929688 41.390625 86.601562 C 43.796875 83.273438 46.351562 80.058594 49.054688 76.964844 C 51.757812 73.871094 54.597656 70.90625 57.570312 68.070312 C 60.546875 65.234375 63.644531 62.542969 66.867188 59.992188 C 70.089844 57.441406 73.421875 55.046875 76.863281 52.800781 C 80.304688 50.554688 83.839844 48.472656 87.472656 46.554688 C 91.109375 44.632812 94.820312 42.882812 98.613281 41.304688 C 102.40625 39.726562 106.265625 38.324219 110.1875 37.097656 C 127.328125 31.644531 144.34375 25.855469 161.339844 19.949219 C 182.035156 12.703125 201.417969 2.871094 219.492188 -9.546875 C 221.453125 -10.8125 223.320312 -12.210938 225.09375 -13.738281 C 226.863281 -15.261719 228.523438 -16.902344 230.070312 -18.652344 C 231.617188 -20.40625 233.035156 -22.257812 234.328125 -24.203125 C 235.621094 -26.152344 236.773438 -28.175781 237.789062 -30.28125 C 238.804688 -32.390625 239.671875 -34.554688 240.386719 -36.777344 C 241.105469 -39.003906 241.667969 -41.265625 242.078125 -43.566406 C 242.484375 -45.871094 242.730469 -48.1875 242.820312 -50.523438 C 242.910156 -52.859375 242.839844 -55.191406 242.609375 -57.515625 C 241.144531 -80.792969 235.078125 -103.152344 219.480469 -121.589844 C 214.125 -127.75 208.445312 -133.597656 202.445312 -139.132812 C 195.746094 -145.851562 188.65625 -152.128906 181.175781 -157.960938 C 164.960938 -169.878906 148.445312 -181.210938 133.992188 -195.519531 C 129.96875 -199.417969 126.265625 -203.597656 122.882812 -208.0625 C 119.5 -212.523438 116.472656 -217.21875 113.804688 -222.144531 C 111.140625 -227.070312 108.863281 -232.171875 106.976562 -237.445312 C 105.089844 -242.71875 103.613281 -248.105469 102.546875 -253.605469 C 101.527344 -256.988281 101.261719 -260.429688 101.753906 -263.929688 C 104.03125 -272.429688 102.632812 -280.828125 102.554688 -289.3125 C 102.703125 -299.441406 103.707031 -309.480469 105.578125 -319.4375 C 107.445312 -329.390625 110.148438 -339.113281 113.683594 -348.605469 C 119.640625 -366.125 124.328125 -383.976562 127.738281 -402.164062 C 131.152344 -420.347656 133.257812 -438.6875 134.058594 -457.171875 C 134.390625 -462.5625 134.136719 -467.925781 133.296875 -473.257812 C 132.457031 -478.59375 131.050781 -483.773438 129.082031 -488.804688 C 128.40625 -490.75 127.574219 -492.625 126.582031 -494.429688 C 125.589844 -496.230469 124.453125 -497.941406 123.171875 -499.550781 C 121.890625 -501.164062 120.480469 -502.65625 118.945312 -504.027344 C 117.410156 -505.398438 115.773438 -506.632812 114.027344 -507.726562 C 108.933594 -510.660156 103.546875 -512.894531 97.875 -514.4375 C 92.199219 -515.976562 86.425781 -516.769531 80.546875 -516.8125 C 60.730469 -517.292969 42.410156 -511.367188 25.011719 -502.964844 C 10.84375 -496.21875 -2.46875 -488.074219 -14.921875 -478.527344 C -27.378906 -468.980469 -38.703125 -458.246094 -48.898438 -446.316406 C -57.226562 -436.789062 -64.515625 -426.523438 -70.761719 -415.523438 C -77.011719 -404.519531 -82.097656 -393.003906 -86.015625 -380.972656 C -94.164062 -354.394531 -103.671875 -328.316406 -114.546875 -302.734375 C -124.496094 -281.566406 -135.746094 -261.109375 -148.296875 -241.375 C -155.972656 -229.425781 -164.292969 -217.945312 -173.257812 -206.933594 C -176.753906 -202.859375 -180.550781 -199.089844 -184.652344 -195.625 C -186.949219 -193.460938 -189.746094 -191.78125 -191.84375 -189.441406 C -207.867188 -171.59375 -227.984375 -159.261719 -248.09375 -146.765625 C -260.601562 -139.414062 -272.398438 -131.058594 -283.480469 -121.695312 C -300.503906 -106.546875 -316.058594 -89.816406 -324.941406 -68.148438 Z M -324.941406 -68.148438 " fill-opacity="1" fill-rule="nonzero"/></g></g></g></svg>